<?xml version="1.0" encoding="UTF-8" standalone="no"?>
<!-- Created with Inkscape (http://www.inkscape.org/) -->

<svg
   width="210mm"
   height="297mm"
   viewBox="0 0 210 297"
   version="1.1"
   id="svg1"
   xml:space="preserve"
   inkscape:version="1.3.2 (1:1.3.2+202311252150+091e20ef0f)"
   sodipodi:docname="grid.svg"
   xmlns:inkscape="http://www.inkscape.org/namespaces/inkscape"
   xmlns:sodipodi="http://sodipodi.sourceforge.net/DTD/sodipodi-0.dtd"
   xmlns="http://www.w3.org/2000/svg"
   xmlns:svg="http://www.w3.org/2000/svg"><sodipodi:namedview
     id="namedview1"
     pagecolor="#ffffff"
     bordercolor="#000000"
     borderopacity="0.25"
     inkscape:showpageshadow="2"
     inkscape:pageopacity="0.0"
     inkscape:pagecheckerboard="0"
     inkscape:deskcolor="#d1d1d1"
     inkscape:document-units="mm"
     inkscape:zoom="1.0476431"
     inkscape:cx="1248.5168"
     inkscape:cy="837.11713"
     inkscape:window-width="2490"
     inkscape:window-height="1376"
     inkscape:window-x="0"
     inkscape:window-y="0"
     inkscape:window-maximized="1"
     inkscape:current-layer="layer1" /><defs
     id="defs1"><inkscape:path-effect
       effect="bspline"
       id="path-effect8"
       is_visible="true"
       lpeversion="1.3"
       weight="33.333333"
       steps="2"
       helper_size="0"
       apply_no_weight="true"
       apply_with_weight="true"
       only_selected="false"
       uniform="false" /><marker
       style="overflow:visible"
       id="DartArrow"
       refX="0"
       refY="0"
       orient="auto-start-reverse"
       inkscape:stockid="Dart arrow"
       markerWidth="2"
       markerHeight="2"
       viewBox="0 0 1 1"
       inkscape:isstock="true"
       inkscape:collect="always"
       preserveAspectRatio="xMidYMid"><path
         style="fill:context-stroke;fill-rule:evenodd;stroke:none"
         d="M 0,0 5,-5 -12.5,0 5,5 Z"
         transform="scale(-0.5)"
         id="path7" /></marker><inkscape:path-effect
       effect="bspline"
       id="path-effect3"
       is_visible="true"
       lpeversion="1.3"
       weight="33.333333"
       steps="2"
       helper_size="0"
       apply_no_weight="true"
       apply_with_weight="true"
       only_selected="false"
       uniform="false" /><inkscape:path-effect
       effect="bspline"
       id="path-effect2"
       is_visible="true"
       lpeversion="1.3"
       weight="33.333333"
       steps="2"
       helper_size="0"
       apply_no_weight="true"
       apply_with_weight="true"
       only_selected="false"
       uniform="false" /><marker
       style="overflow:visible"
       id="Triangle"
       refX="0"
       refY="0"
       orient="auto-start-reverse"
       inkscape:stockid="Triangle arrow"
       markerWidth="0.5"
       markerHeight="0.5"
       viewBox="0 0 1 1"
       inkscape:isstock="true"
       inkscape:collect="always"
       preserveAspectRatio="xMidYMid"
       markerUnits="userSpaceOnUse"><path
         transform="scale(0.5)"
         style="fill:context-stroke;fill-rule:evenodd;stroke:context-stroke;stroke-width:1pt"
         d="M 5.77,0 -2.88,5 V -5 Z"
         id="path135" /></marker><inkscape:path-effect
       effect="bspline"
       id="path-effect1"
       is_visible="true"
       lpeversion="1.3"
       weight="33.333333"
       steps="2"
       helper_size="0"
       apply_no_weight="true"
       apply_with_weight="true"
       only_selected="false"
       uniform="false" /><g
       id="id-40568b3b-b91d-4a1f-aed2-b900e0e5afae"><symbol
         overflow="visible"
         id="id-e5940f9f-8e1c-45b8-aca7-a38e84719f9a"><path
           style="stroke:none;stroke-width:0"
           d=""
           id="id-4ab841bb-d95a-417f-b17c-dd1eb923e1b7" /></symbol><symbol
         overflow="visible"
         id="id-92a63121-d537-45f7-8e01-0597a08d12ee"><path
           style="stroke:none;stroke-width:0"
           d="m 2.765625,-6.828125 2.703125,1.21875 0.125,-0.21875 -2.828125,-1.59375 -2.8125,1.59375 0.109375,0.21875 z m 0,0"
           id="id-b9e5d0e5-1688-4147-8651-fff4963ecb18" /></symbol><symbol
         overflow="visible"
         id="id-b6fec462-6872-4dec-b048-c08125590db4"><path
           style="stroke:none;stroke-width:0"
           d=""
           id="id-4d9eb49c-e2d8-4860-b737-7ff32ff641a3" /></symbol><symbol
         overflow="visible"
         id="id-f35740aa-60b1-4f69-a0e6-a25fd3025881"><path
           style="stroke:none;stroke-width:0"
           d="m 3.734375,-6.125 c 0.0625,-0.234375 0.09375,-0.328125 0.28125,-0.359375 C 4.109375,-6.5 4.421875,-6.5 4.625,-6.5 c 0.703125,0 1.8125,0 1.8125,0.984375 0,0.34375 -0.15625,1.03125 -0.546875,1.421875 -0.265625,0.25 -0.78125,0.578125 -1.6875,0.578125 H 3.09375 Z m 1.4375,2.734375 c 1.015625,-0.21875 2.1875,-0.921875 2.1875,-1.921875 0,-0.859375 -0.890625,-1.5 -2.203125,-1.5 H 2.328125 c -0.203125,0 -0.296875,0 -0.296875,0.203125 C 2.03125,-6.5 2.125,-6.5 2.3125,-6.5 c 0.015625,0 0.203125,0 0.375,0.015625 0.1875,0.03125 0.265625,0.03125 0.265625,0.171875 0,0.03125 0,0.0625 -0.03125,0.1875 l -1.34375,5.34375 C 1.484375,-0.390625 1.46875,-0.3125 0.671875,-0.3125 0.5,-0.3125 0.40625,-0.3125 0.40625,-0.109375 0.40625,0 0.53125,0 0.546875,0 c 0.28125,0 0.984375,-0.03125 1.25,-0.03125 0.28125,0 1,0.03125 1.28125,0.03125 0.078125,0 0.1875,0 0.1875,-0.203125 0,-0.109375 -0.078125,-0.109375 -0.28125,-0.109375 -0.359375,0 -0.640625,0 -0.640625,-0.171875 0,-0.0625 0.015625,-0.109375 0.03125,-0.171875 l 0.65625,-2.640625 h 1.1875 c 0.90625,0 1.078125,0.5625 1.078125,0.90625 0,0.140625 -0.078125,0.453125 -0.140625,0.6875 C 5.09375,-1.421875 5,-1.0625 5,-0.859375 5,0.21875 6.203125,0.21875 6.328125,0.21875 c 0.84375,0 1.203125,-1 1.203125,-1.140625 0,-0.125 -0.109375,-0.125 -0.125,-0.125 -0.09375,0 -0.109375,0.0625 -0.125,0.140625 C 7.03125,-0.171875 6.59375,0 6.375,0 6.046875,0 5.96875,-0.21875 5.96875,-0.609375 c 0,-0.3125 0.0625,-0.8125 0.109375,-1.140625 0.015625,-0.140625 0.03125,-0.328125 0.03125,-0.46875 0,-0.765625 -0.671875,-1.078125 -0.9375,-1.171875 z m 0,0"
           id="id-6119c0dd-0003-4667-a527-5cff1b02cfc0" /></symbol><symbol
         overflow="visible"
         id="id-fe262474-2773-4acc-ba34-31c64dfe5c02"><path
           style="stroke:none;stroke-width:0"
           d="m 2.046875,-3.984375 h 0.9375 c 0.203125,0 0.3125,0 0.3125,-0.203125 0,-0.109375 -0.109375,-0.109375 -0.28125,-0.109375 h -0.875 C 2.5,-5.71875 2.546875,-5.90625 2.546875,-5.96875 c 0,-0.171875 -0.125,-0.265625 -0.296875,-0.265625 -0.03125,0 -0.3125,0 -0.390625,0.359375 L 1.46875,-4.296875 h -0.9375 c -0.203125,0 -0.296875,0 -0.296875,0.1875 0,0.125 0.078125,0.125 0.28125,0.125 h 0.875 C 0.671875,-1.15625 0.625,-0.984375 0.625,-0.8125 0.625,-0.265625 1,0.109375 1.546875,0.109375 2.5625,0.109375 3.125,-1.34375 3.125,-1.421875 3.125,-1.53125 3.046875,-1.53125 3.015625,-1.53125 2.921875,-1.53125 2.90625,-1.5 2.859375,-1.390625 2.4375,-0.34375 1.90625,-0.109375 1.5625,-0.109375 c -0.203125,0 -0.3125,-0.125 -0.3125,-0.453125 0,-0.25 0.03125,-0.3125 0.0625,-0.484375 z m 0,0"
           id="id-50fdb581-346d-4b9d-8a77-b4e6327d8a16" /></symbol><symbol
         overflow="visible"
         id="id-d6d6b4a7-8bbc-4742-a8b5-0ec389324735"><path
           style="stroke:none;stroke-width:0"
           d=""
           id="id-3bcd9c9a-4a71-42f0-8eb7-4a93552f40a0" /></symbol><symbol
         overflow="visible"
         id="id-e3c353ed-ddfd-4b07-a692-aa5dcb2421a0"><path
           style="stroke:none;stroke-width:0"
           d="M 1.734375,-0.734375 C 1.671875,-0.5 1.4375,-0.125 1.078125,-0.125 c -0.015625,0 -0.234375,0 -0.375,-0.09375 0.28125,-0.09375 0.3125,-0.34375 0.3125,-0.390625 0,-0.15625 -0.125,-0.25 -0.28125,-0.25 -0.203125,0 -0.40625,0.15625 -0.40625,0.421875 0,0.34375 0.390625,0.5 0.734375,0.5 0.328125,0 0.609375,-0.1875 0.78125,-0.484375 C 2.015625,-0.0625 2.390625,0.0625 2.671875,0.0625 c 0.8125,0 1.234375,-0.859375 1.234375,-1.0625 0,-0.09375 -0.09375,-0.09375 -0.109375,-0.09375 -0.109375,0 -0.109375,0.046875 -0.140625,0.125 -0.140625,0.484375 -0.5625,0.84375 -0.953125,0.84375 -0.28125,0 -0.421875,-0.1875 -0.421875,-0.453125 0,-0.1875 0.171875,-0.8125 0.359375,-1.59375 C 2.78125,-2.703125 3.09375,-2.875 3.328125,-2.875 c 0.015625,0 0.21875,0 0.375,0.09375 -0.21875,0.0625 -0.3125,0.265625 -0.3125,0.390625 0,0.140625 0.125,0.25 0.28125,0.25 0.15625,0 0.390625,-0.125 0.390625,-0.421875 0,-0.390625 -0.453125,-0.515625 -0.71875,-0.515625 -0.359375,0 -0.640625,0.234375 -0.78125,0.5 -0.125,-0.28125 -0.453125,-0.5 -0.84375,-0.5 C 0.9375,-3.078125 0.5,-2.21875 0.5,-2 c 0,0.078125 0.09375,0.078125 0.109375,0.078125 0.09375,0 0.09375,-0.015625 0.140625,-0.109375 C 0.921875,-2.578125 1.359375,-2.875 1.703125,-2.875 1.9375,-2.875 2.125,-2.75 2.125,-2.421875 2.125,-2.28125 2.03125,-1.9375 1.96875,-1.6875 Z m 0,0"
           id="id-69875583-a1ac-4b7a-923c-affc32aeee59" /></symbol><symbol
         overflow="visible"
         id="id-73ea55f8-939e-4b97-b20e-f09d27fbf150"><path
           style="stroke:none;stroke-width:0"
           d=""
           id="id-f6c90b8f-170e-40d9-b795-9e691a584a11" /></symbol><symbol
         overflow="visible"
         id="id-a0a89603-3f4d-464d-86ca-69f2031573a9"><path
           style="stroke:none;stroke-width:0"
           d="m 3.296875,2.390625 c 0,-0.03125 0,-0.046875 -0.171875,-0.21875 C 1.890625,0.921875 1.5625,-0.96875 1.5625,-2.5 c 0,-1.734375 0.375,-3.46875 1.609375,-4.703125 0.125,-0.125 0.125,-0.140625 0.125,-0.171875 0,-0.078125 -0.03125,-0.109375 -0.09375,-0.109375 -0.109375,0 -1,0.6875 -1.59375,1.953125 -0.5,1.09375 -0.625,2.203125 -0.625,3.03125 0,0.78125 0.109375,1.984375 0.65625,3.125 C 2.25,1.84375 3.09375,2.5 3.203125,2.5 c 0.0625,0 0.09375,-0.03125 0.09375,-0.109375 z m 0,0"
           id="id-02b5e5f0-2976-4f7c-8a47-27474521db4c" /></symbol><symbol
         overflow="visible"
         id="id-a0f06307-e50c-4f71-a9b5-18d91235eb7c"><path
           style="stroke:none;stroke-width:0"
           d="m 4.40625,-6.953125 c -0.0625,-0.140625 -0.09375,-0.1875 -0.265625,-0.1875 -0.15625,0 -0.1875,0.046875 -0.25,0.1875 l -3.375,6.75 C 0.46875,-0.109375 0.46875,-0.09375 0.46875,-0.078125 0.46875,0 0.53125,0 0.6875,0 h 6.921875 c 0.15625,0 0.21875,0 0.21875,-0.078125 0,-0.015625 0,-0.03125 -0.046875,-0.125 z m -0.578125,0.8125 2.6875,5.390625 h -5.375 z m 0,0"
           id="id-45b8042c-5c5a-40dd-b761-af68b821a951" /></symbol><symbol
         overflow="visible"
         id="id-e5371c10-1a5e-4f05-bb41-02b39b3cca79"><path
           style="stroke:none;stroke-width:0"
           d="m 2.875,-2.5 c 0,-0.765625 -0.109375,-1.96875 -0.65625,-3.109375 -0.59375,-1.21875 -1.453125,-1.875 -1.546875,-1.875 -0.0625,0 -0.109375,0.046875 -0.109375,0.109375 0,0.03125 0,0.046875 0.1875,0.234375 0.984375,0.984375 1.546875,2.5625 1.546875,4.640625 0,1.71875 -0.359375,3.46875 -1.59375,4.71875 C 0.5625,2.34375 0.5625,2.359375 0.5625,2.390625 0.5625,2.453125 0.609375,2.5 0.671875,2.5 0.765625,2.5 1.671875,1.8125 2.25,0.546875 2.765625,-0.546875 2.875,-1.65625 2.875,-2.5 Z m 0,0"
           id="id-508cccba-cc0a-4e6d-be81-69490c4ef0f6" /></symbol></g><g
       id="id-91c3c2c0-3664-4be5-8ada-3795740101d0"><symbol
         overflow="visible"
         id="id-52ffdb64-7138-49ca-92fe-922b13f7b931"><path
           style="stroke:none;stroke-width:0"
           d=""
           id="id-2e882132-ecea-4a65-9779-16ee498cfdcb" /></symbol><symbol
         overflow="visible"
         id="id-b3c66fbe-ae2d-4cb9-a9c7-db6a9d6dbc2b"><path
           style="stroke:none;stroke-width:0"
           d="m 2.765625,-6.828125 2.703125,1.21875 0.125,-0.21875 -2.828125,-1.59375 -2.8125,1.59375 0.109375,0.21875 z m 0,0"
           id="id-64faa942-0414-40d1-8349-ae8281870070" /></symbol><symbol
         overflow="visible"
         id="id-8a815752-145e-44b9-863a-136607367319"><path
           style="stroke:none;stroke-width:0"
           d=""
           id="id-8b60c921-2417-4072-816b-678b94515393" /></symbol><symbol
         overflow="visible"
         id="id-a3ea49a1-6d2f-4a36-bda3-1292a4ee8224"><path
           style="stroke:none;stroke-width:0"
           d="m 3.734375,-6.125 c 0.0625,-0.234375 0.09375,-0.328125 0.28125,-0.359375 C 4.109375,-6.5 4.421875,-6.5 4.625,-6.5 c 0.703125,0 1.8125,0 1.8125,0.984375 0,0.34375 -0.15625,1.03125 -0.546875,1.421875 -0.265625,0.25 -0.78125,0.578125 -1.6875,0.578125 H 3.09375 Z m 1.4375,2.734375 c 1.015625,-0.21875 2.1875,-0.921875 2.1875,-1.921875 0,-0.859375 -0.890625,-1.5 -2.203125,-1.5 H 2.328125 c -0.203125,0 -0.296875,0 -0.296875,0.203125 C 2.03125,-6.5 2.125,-6.5 2.3125,-6.5 c 0.015625,0 0.203125,0 0.375,0.015625 0.1875,0.03125 0.265625,0.03125 0.265625,0.171875 0,0.03125 0,0.0625 -0.03125,0.1875 l -1.34375,5.34375 C 1.484375,-0.390625 1.46875,-0.3125 0.671875,-0.3125 0.5,-0.3125 0.40625,-0.3125 0.40625,-0.109375 0.40625,0 0.53125,0 0.546875,0 c 0.28125,0 0.984375,-0.03125 1.25,-0.03125 0.28125,0 1,0.03125 1.28125,0.03125 0.078125,0 0.1875,0 0.1875,-0.203125 0,-0.109375 -0.078125,-0.109375 -0.28125,-0.109375 -0.359375,0 -0.640625,0 -0.640625,-0.171875 0,-0.0625 0.015625,-0.109375 0.03125,-0.171875 l 0.65625,-2.640625 h 1.1875 c 0.90625,0 1.078125,0.5625 1.078125,0.90625 0,0.140625 -0.078125,0.453125 -0.140625,0.6875 C 5.09375,-1.421875 5,-1.0625 5,-0.859375 5,0.21875 6.203125,0.21875 6.328125,0.21875 c 0.84375,0 1.203125,-1 1.203125,-1.140625 0,-0.125 -0.109375,-0.125 -0.125,-0.125 -0.09375,0 -0.109375,0.0625 -0.125,0.140625 C 7.03125,-0.171875 6.59375,0 6.375,0 6.046875,0 5.96875,-0.21875 5.96875,-0.609375 c 0,-0.3125 0.0625,-0.8125 0.109375,-1.140625 0.015625,-0.140625 0.03125,-0.328125 0.03125,-0.46875 0,-0.765625 -0.671875,-1.078125 -0.9375,-1.171875 z m 0,0"
           id="id-541cb177-dfdc-428e-bee5-250dd8f8dde7" /></symbol><symbol
         overflow="visible"
         id="id-50fe9add-7e1c-4e4d-a842-37deafca0b3e"><path
           style="stroke:none;stroke-width:0"
           d="m 2.046875,-3.984375 h 0.9375 c 0.203125,0 0.3125,0 0.3125,-0.203125 0,-0.109375 -0.109375,-0.109375 -0.28125,-0.109375 h -0.875 C 2.5,-5.71875 2.546875,-5.90625 2.546875,-5.96875 c 0,-0.171875 -0.125,-0.265625 -0.296875,-0.265625 -0.03125,0 -0.3125,0 -0.390625,0.359375 L 1.46875,-4.296875 h -0.9375 c -0.203125,0 -0.296875,0 -0.296875,0.1875 0,0.125 0.078125,0.125 0.28125,0.125 h 0.875 C 0.671875,-1.15625 0.625,-0.984375 0.625,-0.8125 0.625,-0.265625 1,0.109375 1.546875,0.109375 2.5625,0.109375 3.125,-1.34375 3.125,-1.421875 3.125,-1.53125 3.046875,-1.53125 3.015625,-1.53125 2.921875,-1.53125 2.90625,-1.5 2.859375,-1.390625 2.4375,-0.34375 1.90625,-0.109375 1.5625,-0.109375 c -0.203125,0 -0.3125,-0.125 -0.3125,-0.453125 0,-0.25 0.03125,-0.3125 0.0625,-0.484375 z m 0,0"
           id="id-e363e382-a55e-43d0-8ea9-9fb1b70eb723" /></symbol><symbol
         overflow="visible"
         id="id-55428078-233f-42a1-9ec8-2287d89ebec7"><path
           style="stroke:none;stroke-width:0"
           d=""
           id="id-7f188468-f603-4cbb-9c3a-e07fda42c287" /></symbol><symbol
         overflow="visible"
         id="id-8ab5a446-21f1-4861-9194-46239da0ff21"><path
           style="stroke:none;stroke-width:0"
           d="M 3.875,-2.625 C 3.90625,-2.71875 3.90625,-2.734375 3.90625,-2.78125 3.90625,-2.921875 3.796875,-3 3.671875,-3 3.59375,-3 3.46875,-2.96875 3.390625,-2.84375 3.359375,-2.796875 3.3125,-2.578125 3.28125,-2.4375 L 3.125,-1.859375 c -0.03125,0.171875 -0.25,1.046875 -0.28125,1.125 0,0 -0.3125,0.609375 -0.84375,0.609375 -0.484375,0 -0.484375,-0.453125 -0.484375,-0.578125 0,-0.375 0.15625,-0.8125 0.375,-1.359375 C 1.96875,-2.28125 2,-2.359375 2,-2.484375 2,-2.8125 1.71875,-3.078125 1.34375,-3.078125 0.640625,-3.078125 0.328125,-2.125 0.328125,-2 c 0,0.078125 0.09375,0.078125 0.125,0.078125 0.09375,0 0.09375,-0.03125 0.125,-0.109375 C 0.75,-2.609375 1.046875,-2.875 1.328125,-2.875 1.4375,-2.875 1.5,-2.796875 1.5,-2.640625 c 0,0.171875 -0.0625,0.3125 -0.09375,0.40625 C 1.0625,-1.375 1,-1.125 1,-0.8125 1,-0.703125 1,-0.375 1.265625,-0.140625 1.484375,0.03125 1.78125,0.0625 1.96875,0.0625 2.25,0.0625 2.5,-0.03125 2.71875,-0.25 2.640625,0.140625 2.5625,0.4375 2.265625,0.78125 2.078125,1 1.796875,1.21875 1.421875,1.21875 c -0.046875,0 -0.375,0 -0.515625,-0.21875 0.375,-0.046875 0.375,-0.375 0.375,-0.390625 0,-0.21875 -0.203125,-0.265625 -0.265625,-0.265625 -0.171875,0 -0.40625,0.140625 -0.40625,0.46875 0,0.34375 0.328125,0.609375 0.828125,0.609375 C 2.140625,1.421875 3,0.875 3.21875,0 Z m 0,0"
           id="id-ba241b1a-de39-44e7-87a0-18de8cc015d6" /></symbol><symbol
         overflow="visible"
         id="id-d9697cfa-abc2-430d-b363-75af71cc9d1f"><path
           style="stroke:none;stroke-width:0"
           d=""
           id="id-fcb72308-5d29-4052-ae8d-804ade120288" /></symbol><symbol
         overflow="visible"
         id="id-0a1cc1f6-ba18-4610-b8b8-896fe148347a"><path
           style="stroke:none;stroke-width:0"
           d="m 3.296875,2.390625 c 0,-0.03125 0,-0.046875 -0.171875,-0.21875 C 1.890625,0.921875 1.5625,-0.96875 1.5625,-2.5 c 0,-1.734375 0.375,-3.46875 1.609375,-4.703125 0.125,-0.125 0.125,-0.140625 0.125,-0.171875 0,-0.078125 -0.03125,-0.109375 -0.09375,-0.109375 -0.109375,0 -1,0.6875 -1.59375,1.953125 -0.5,1.09375 -0.625,2.203125 -0.625,3.03125 0,0.78125 0.109375,1.984375 0.65625,3.125 C 2.25,1.84375 3.09375,2.5 3.203125,2.5 c 0.0625,0 0.09375,-0.03125 0.09375,-0.109375 z m 0,0"
           id="id-f2a15ebc-56f3-4882-bfb5-d64e1005bf81" /></symbol><symbol
         overflow="visible"
         id="id-26a9f7b4-6826-4fd8-945d-55cf4bb624a9"><path
           style="stroke:none;stroke-width:0"
           d="m 4.40625,-6.953125 c -0.0625,-0.140625 -0.09375,-0.1875 -0.265625,-0.1875 -0.15625,0 -0.1875,0.046875 -0.25,0.1875 l -3.375,6.75 C 0.46875,-0.109375 0.46875,-0.09375 0.46875,-0.078125 0.46875,0 0.53125,0 0.6875,0 h 6.921875 c 0.15625,0 0.21875,0 0.21875,-0.078125 0,-0.015625 0,-0.03125 -0.046875,-0.125 z m -0.578125,0.8125 2.6875,5.390625 h -5.375 z m 0,0"
           id="id-98dd57ba-f05d-457f-89c0-82f0abfc15cb" /></symbol><symbol
         overflow="visible"
         id="id-bcb1bbf3-10ab-4dec-8cd1-303595d2aaa9"><path
           style="stroke:none;stroke-width:0"
           d="m 2.875,-2.5 c 0,-0.765625 -0.109375,-1.96875 -0.65625,-3.109375 -0.59375,-1.21875 -1.453125,-1.875 -1.546875,-1.875 -0.0625,0 -0.109375,0.046875 -0.109375,0.109375 0,0.03125 0,0.046875 0.1875,0.234375 0.984375,0.984375 1.546875,2.5625 1.546875,4.640625 0,1.71875 -0.359375,3.46875 -1.59375,4.71875 C 0.5625,2.34375 0.5625,2.359375 0.5625,2.390625 0.5625,2.453125 0.609375,2.5 0.671875,2.5 0.765625,2.5 1.671875,1.8125 2.25,0.546875 2.765625,-0.546875 2.875,-1.65625 2.875,-2.5 Z m 0,0"
           id="id-2ca1e2ca-93e3-4dd7-881a-815861790a8a" /></symbol></g><g
       id="id-8a8b238b-d03f-4c79-99cb-5ada4e4c5917"><symbol
         overflow="visible"
         id="id-a9f1fe08-e3ef-42a4-b58b-b771a97dc914"><path
           style="stroke:none;stroke-width:0"
           d=""
           id="id-c3c53e19-54d4-4954-9f5b-402b15e43bc2" /></symbol><symbol
         overflow="visible"
         id="id-ee9b41f0-d70a-4435-8f2e-dc34d99ceb96"><path
           style="stroke:none;stroke-width:0"
           d="M 3.015625,-3.15625 H 4.71875 c 1.40625,0 2.796875,-1.03125 2.796875,-2.140625 0,-0.78125 -0.65625,-1.515625 -1.96875,-1.515625 h -3.21875 c -0.1875,0 -0.296875,0 -0.296875,0.1875 0,0.125 0.078125,0.125 0.28125,0.125 0.125,0 0.3125,0.015625 0.421875,0.015625 0.171875,0.03125 0.21875,0.046875 0.21875,0.171875 0,0.03125 0,0.0625 -0.03125,0.1875 l -1.34375,5.34375 c -0.09375,0.390625 -0.109375,0.46875 -0.90625,0.46875 -0.15625,0 -0.265625,0 -0.265625,0.1875 C 0.40625,0 0.515625,0 0.546875,0 0.828125,0 1.53125,-0.03125 1.8125,-0.03125 c 0.21875,0 0.4375,0.015625 0.640625,0.015625 0.21875,0 0.4375,0.015625 0.640625,0.015625 0.078125,0 0.203125,0 0.203125,-0.203125 0,-0.109375 -0.09375,-0.109375 -0.28125,-0.109375 -0.359375,0 -0.640625,0 -0.640625,-0.171875 0,-0.0625 0.015625,-0.109375 0.03125,-0.171875 z M 3.734375,-6.125 C 3.828125,-6.46875 3.84375,-6.5 4.28125,-6.5 h 0.953125 c 0.828125,0 1.359375,0.265625 1.359375,0.953125 0,0.390625 -0.203125,1.25 -0.59375,1.609375 -0.5,0.453125 -1.09375,0.53125 -1.53125,0.53125 H 3.0625 Z m 0,0"
           id="id-0d41df3a-dbf7-4e12-9f8e-01b5aa6159bb" /></symbol><symbol
         overflow="visible"
         id="id-8fc5bc52-f6e0-4af3-953a-a4bdcc7ccebf"><path
           style="stroke:none;stroke-width:0"
           d=""
           id="id-b9c94167-a948-4a98-90f5-a22541a91ae9" /></symbol><symbol
         overflow="visible"
         id="id-dc9bbe63-8377-4978-a1b8-a885d412f1e6"><path
           style="stroke:none;stroke-width:0"
           d="M 3.59375,-2.21875 C 3.59375,-2.984375 3.5,-3.546875 3.1875,-4.03125 2.96875,-4.34375 2.53125,-4.625 1.984375,-4.625 c -1.625,0 -1.625,1.90625 -1.625,2.40625 0,0.5 0,2.359375 1.625,2.359375 1.609375,0 1.609375,-1.859375 1.609375,-2.359375 z M 1.984375,-0.0625 c -0.328125,0 -0.75,-0.1875 -0.890625,-0.75 C 1,-1.21875 1,-1.796875 1,-2.3125 1,-2.828125 1,-3.359375 1.09375,-3.734375 1.25,-4.28125 1.6875,-4.4375 1.984375,-4.4375 c 0.375,0 0.734375,0.234375 0.859375,0.640625 0.109375,0.375 0.125,0.875 0.125,1.484375 0,0.515625 0,1.03125 -0.09375,1.46875 -0.140625,0.640625 -0.609375,0.78125 -0.890625,0.78125 z m 0,0"
           id="id-667be782-8b8c-4a18-9a9d-6f60c3df0c1a" /></symbol></g><g
       id="id-ac937c00-198c-4d94-92ac-25c783bfbf74"><symbol
         overflow="visible"
         id="id-dfedd001-2742-4505-9e8c-91dfee24767d"><path
           style="stroke:none;stroke-width:0"
           d=""
           id="id-e1543a10-3ca4-4187-b21a-a963aeebd71c" /></symbol><symbol
         overflow="visible"
         id="id-59dce5f7-7e04-4634-830c-5621be76f261"><path
           style="stroke:none;stroke-width:0"
           d="M 3.015625,-3.15625 H 4.71875 c 1.40625,0 2.796875,-1.03125 2.796875,-2.140625 0,-0.78125 -0.65625,-1.515625 -1.96875,-1.515625 h -3.21875 c -0.1875,0 -0.296875,0 -0.296875,0.1875 0,0.125 0.078125,0.125 0.28125,0.125 0.125,0 0.3125,0.015625 0.421875,0.015625 0.171875,0.03125 0.21875,0.046875 0.21875,0.171875 0,0.03125 0,0.0625 -0.03125,0.1875 l -1.34375,5.34375 c -0.09375,0.390625 -0.109375,0.46875 -0.90625,0.46875 -0.15625,0 -0.265625,0 -0.265625,0.1875 C 0.40625,0 0.515625,0 0.546875,0 0.828125,0 1.53125,-0.03125 1.8125,-0.03125 c 0.21875,0 0.4375,0.015625 0.640625,0.015625 0.21875,0 0.4375,0.015625 0.640625,0.015625 0.078125,0 0.203125,0 0.203125,-0.203125 0,-0.109375 -0.09375,-0.109375 -0.28125,-0.109375 -0.359375,0 -0.640625,0 -0.640625,-0.171875 0,-0.0625 0.015625,-0.109375 0.03125,-0.171875 z M 3.734375,-6.125 C 3.828125,-6.46875 3.84375,-6.5 4.28125,-6.5 h 0.953125 c 0.828125,0 1.359375,0.265625 1.359375,0.953125 0,0.390625 -0.203125,1.25 -0.59375,1.609375 -0.5,0.453125 -1.09375,0.53125 -1.53125,0.53125 H 3.0625 Z m 0,0"
           id="id-004693ed-8fa3-4ca0-832f-5b1659badfab" /></symbol><symbol
         overflow="visible"
         id="id-5e81fa65-f27b-4069-bdb6-6a09fba5ad2c"><path
           style="stroke:none;stroke-width:0"
           d=""
           id="id-f8b69dfb-8480-48ce-89e3-22fcce5e20be" /></symbol><symbol
         overflow="visible"
         id="id-da766d18-a328-44f3-b0ea-feedd60f65f9"><path
           style="stroke:none;stroke-width:0"
           d="M 1.734375,-0.734375 C 1.671875,-0.5 1.4375,-0.125 1.078125,-0.125 c -0.015625,0 -0.234375,0 -0.375,-0.09375 0.28125,-0.09375 0.3125,-0.34375 0.3125,-0.390625 0,-0.15625 -0.125,-0.25 -0.28125,-0.25 -0.203125,0 -0.40625,0.15625 -0.40625,0.421875 0,0.34375 0.390625,0.5 0.734375,0.5 0.328125,0 0.609375,-0.1875 0.78125,-0.484375 C 2.015625,-0.0625 2.390625,0.0625 2.671875,0.0625 c 0.8125,0 1.234375,-0.859375 1.234375,-1.0625 0,-0.09375 -0.09375,-0.09375 -0.109375,-0.09375 -0.109375,0 -0.109375,0.046875 -0.140625,0.125 -0.140625,0.484375 -0.5625,0.84375 -0.953125,0.84375 -0.28125,0 -0.421875,-0.1875 -0.421875,-0.453125 0,-0.1875 0.171875,-0.8125 0.359375,-1.59375 C 2.78125,-2.703125 3.09375,-2.875 3.328125,-2.875 c 0.015625,0 0.21875,0 0.375,0.09375 -0.21875,0.0625 -0.3125,0.265625 -0.3125,0.390625 0,0.140625 0.125,0.25 0.28125,0.25 0.15625,0 0.390625,-0.125 0.390625,-0.421875 0,-0.390625 -0.453125,-0.515625 -0.71875,-0.515625 -0.359375,0 -0.640625,0.234375 -0.78125,0.5 -0.125,-0.28125 -0.453125,-0.5 -0.84375,-0.5 C 0.9375,-3.078125 0.5,-2.21875 0.5,-2 c 0,0.078125 0.09375,0.078125 0.109375,0.078125 0.09375,0 0.09375,-0.015625 0.140625,-0.109375 C 0.921875,-2.578125 1.359375,-2.875 1.703125,-2.875 1.9375,-2.875 2.125,-2.75 2.125,-2.421875 2.125,-2.28125 2.03125,-1.9375 1.96875,-1.6875 Z m 0,0"
           id="id-deeec388-73d2-4897-9800-2fb04f5808ba" /></symbol></g><g
       id="id-e2129bbd-178a-421e-b21e-5bafc7fb82b7"><symbol
         overflow="visible"
         id="id-1f0f5b1c-1116-47ec-ad4d-0aeed763b3d3"><path
           style="stroke:none;stroke-width:0"
           d=""
           id="id-fe90c01f-2935-42b2-8772-9a6dc166bc96" /></symbol><symbol
         overflow="visible"
         id="id-5571577a-65f0-4a62-95c3-173cddd4eb9d"><path
           style="stroke:none;stroke-width:0"
           d="M 3.015625,-3.15625 H 4.71875 c 1.40625,0 2.796875,-1.03125 2.796875,-2.140625 0,-0.78125 -0.65625,-1.515625 -1.96875,-1.515625 h -3.21875 c -0.1875,0 -0.296875,0 -0.296875,0.1875 0,0.125 0.078125,0.125 0.28125,0.125 0.125,0 0.3125,0.015625 0.421875,0.015625 0.171875,0.03125 0.21875,0.046875 0.21875,0.171875 0,0.03125 0,0.0625 -0.03125,0.1875 l -1.34375,5.34375 c -0.09375,0.390625 -0.109375,0.46875 -0.90625,0.46875 -0.15625,0 -0.265625,0 -0.265625,0.1875 C 0.40625,0 0.515625,0 0.546875,0 0.828125,0 1.53125,-0.03125 1.8125,-0.03125 c 0.21875,0 0.4375,0.015625 0.640625,0.015625 0.21875,0 0.4375,0.015625 0.640625,0.015625 0.078125,0 0.203125,0 0.203125,-0.203125 0,-0.109375 -0.09375,-0.109375 -0.28125,-0.109375 -0.359375,0 -0.640625,0 -0.640625,-0.171875 0,-0.0625 0.015625,-0.109375 0.03125,-0.171875 z M 3.734375,-6.125 C 3.828125,-6.46875 3.84375,-6.5 4.28125,-6.5 h 0.953125 c 0.828125,0 1.359375,0.265625 1.359375,0.953125 0,0.390625 -0.203125,1.25 -0.59375,1.609375 -0.5,0.453125 -1.09375,0.53125 -1.53125,0.53125 H 3.0625 Z m 0,0"
           id="id-fafb019c-4c2a-4438-b8ad-7fc694c66ab9" /></symbol><symbol
         overflow="visible"
         id="id-fde76c7c-4824-4975-b5da-6c6e4a3b1da2"><path
           style="stroke:none;stroke-width:0"
           d=""
           id="id-1eb44ce1-edcd-4abb-8b36-b11981aac525" /></symbol><symbol
         overflow="visible"
         id="id-4b534b94-2354-4d34-83aa-055eab2e4335"><path
           style="stroke:none;stroke-width:0"
           d="M 3.875,-2.625 C 3.90625,-2.71875 3.90625,-2.734375 3.90625,-2.78125 3.90625,-2.921875 3.796875,-3 3.671875,-3 3.59375,-3 3.46875,-2.96875 3.390625,-2.84375 3.359375,-2.796875 3.3125,-2.578125 3.28125,-2.4375 L 3.125,-1.859375 c -0.03125,0.171875 -0.25,1.046875 -0.28125,1.125 0,0 -0.3125,0.609375 -0.84375,0.609375 -0.484375,0 -0.484375,-0.453125 -0.484375,-0.578125 0,-0.375 0.15625,-0.8125 0.375,-1.359375 C 1.96875,-2.28125 2,-2.359375 2,-2.484375 2,-2.8125 1.71875,-3.078125 1.34375,-3.078125 0.640625,-3.078125 0.328125,-2.125 0.328125,-2 c 0,0.078125 0.09375,0.078125 0.125,0.078125 0.09375,0 0.09375,-0.03125 0.125,-0.109375 C 0.75,-2.609375 1.046875,-2.875 1.328125,-2.875 1.4375,-2.875 1.5,-2.796875 1.5,-2.640625 c 0,0.171875 -0.0625,0.3125 -0.09375,0.40625 C 1.0625,-1.375 1,-1.125 1,-0.8125 1,-0.703125 1,-0.375 1.265625,-0.140625 1.484375,0.03125 1.78125,0.0625 1.96875,0.0625 2.25,0.0625 2.5,-0.03125 2.71875,-0.25 2.640625,0.140625 2.5625,0.4375 2.265625,0.78125 2.078125,1 1.796875,1.21875 1.421875,1.21875 c -0.046875,0 -0.375,0 -0.515625,-0.21875 0.375,-0.046875 0.375,-0.375 0.375,-0.390625 0,-0.21875 -0.203125,-0.265625 -0.265625,-0.265625 -0.171875,0 -0.40625,0.140625 -0.40625,0.46875 0,0.34375 0.328125,0.609375 0.828125,0.609375 C 2.140625,1.421875 3,0.875 3.21875,0 Z m 0,0"
           id="id-ec68500c-dd2b-41bc-b8a0-72be5a255b0c" /></symbol></g><g
       id="id-6e71fcc1-434c-479f-90e3-203e02c01f0d"><symbol
         overflow="visible"
         id="id-6088131d-79b5-4525-b3d6-f10b8d7395dc"><path
           style="stroke:none;stroke-width:0"
           d=""
           id="id-f50d2998-de3e-4203-8ed6-48571324ab2a" /></symbol><symbol
         overflow="visible"
         id="id-79a6824a-440b-4239-8bdc-fd4477564db0"><path
           style="stroke:none;stroke-width:0"
           d="m 4.40625,-6.953125 c -0.0625,-0.140625 -0.09375,-0.1875 -0.265625,-0.1875 -0.15625,0 -0.1875,0.046875 -0.25,0.1875 l -3.375,6.75 C 0.46875,-0.109375 0.46875,-0.09375 0.46875,-0.078125 0.46875,0 0.53125,0 0.6875,0 h 6.921875 c 0.15625,0 0.21875,0 0.21875,-0.078125 0,-0.015625 0,-0.03125 -0.046875,-0.125 z m -0.578125,0.8125 2.6875,5.390625 h -5.375 z m 0,0"
           id="id-e81b0ae8-9dcf-4c09-8796-179fead9b852" /></symbol><symbol
         overflow="visible"
         id="id-02c6689f-3688-4ce0-8cd0-a2dd1f079a5c"><path
           style="stroke:none;stroke-width:0"
           d=""
           id="id-b741e9de-7e28-45e7-befa-6a4741bc2d62" /></symbol><symbol
         overflow="visible"
         id="id-888efab6-9596-4d5f-bfd7-fbf6fe68d06a"><path
           style="stroke:none;stroke-width:0"
           d="M 3.328125,-3.015625 C 3.390625,-3.265625 3.625,-4.1875 4.3125,-4.1875 c 0.046875,0 0.296875,0 0.5,0.125 C 4.53125,-4 4.34375,-3.765625 4.34375,-3.515625 c 0,0.15625 0.109375,0.34375 0.375,0.34375 0.21875,0 0.53125,-0.171875 0.53125,-0.578125 0,-0.515625 -0.578125,-0.65625 -0.921875,-0.65625 -0.578125,0 -0.921875,0.53125 -1.046875,0.75 -0.25,-0.65625 -0.78125,-0.75 -1.078125,-0.75 -1.03125,0 -1.609375,1.28125 -1.609375,1.53125 0,0.109375 0.109375,0.109375 0.125,0.109375 0.078125,0 0.109375,-0.03125 0.125,-0.109375 0.34375,-1.0625 1,-1.3125 1.34375,-1.3125 0.1875,0 0.53125,0.09375 0.53125,0.671875 0,0.3125 -0.171875,0.96875 -0.53125,2.375 -0.15625,0.609375 -0.515625,1.03125 -0.953125,1.03125 -0.0625,0 -0.28125,0 -0.5,-0.125 0.25,-0.0625 0.46875,-0.265625 0.46875,-0.546875 0,-0.265625 -0.21875,-0.34375 -0.359375,-0.34375 -0.3125,0 -0.546875,0.25 -0.546875,0.578125 0,0.453125 0.484375,0.65625 0.921875,0.65625 0.671875,0 1.03125,-0.703125 1.046875,-0.75 0.125,0.359375 0.484375,0.75 1.078125,0.75 1.03125,0 1.59375,-1.28125 1.59375,-1.53125 0,-0.109375 -0.078125,-0.109375 -0.109375,-0.109375 -0.09375,0 -0.109375,0.046875 -0.140625,0.109375 -0.328125,1.078125 -1,1.3125 -1.3125,1.3125 -0.390625,0 -0.546875,-0.3125 -0.546875,-0.65625 0,-0.21875 0.046875,-0.4375 0.15625,-0.875 z m 0,0"
           id="id-a7720ac7-3022-44cf-9269-54b7778c60c0" /></symbol></g><g
       id="id-c7abf622-a40a-465d-b83e-9253cc77a45a"><symbol
         overflow="visible"
         id="id-6098fe42-6a0c-40a9-a81f-b089c91c923a"><path
           style="stroke:none;stroke-width:0"
           d=""
           id="id-678dcf3d-66ac-417a-babf-f53d5a435807" /></symbol><symbol
         overflow="visible"
         id="id-74f11adf-9b45-4149-9221-cd0e84441ca6"><path
           style="stroke:none;stroke-width:0"
           d="m 4.40625,-6.953125 c -0.0625,-0.140625 -0.09375,-0.1875 -0.265625,-0.1875 -0.15625,0 -0.1875,0.046875 -0.25,0.1875 l -3.375,6.75 C 0.46875,-0.109375 0.46875,-0.09375 0.46875,-0.078125 0.46875,0 0.53125,0 0.6875,0 h 6.921875 c 0.15625,0 0.21875,0 0.21875,-0.078125 0,-0.015625 0,-0.03125 -0.046875,-0.125 z m -0.578125,0.8125 2.6875,5.390625 h -5.375 z m 0,0"
           id="id-9a56eac4-c0f1-4a84-b422-500921a3fad4" /></symbol><symbol
         overflow="visible"
         id="id-adb1919a-f708-46c4-a70d-cbe172d925d9"><path
           style="stroke:none;stroke-width:0"
           d=""
           id="id-321d0d1e-f75a-4e42-a4ef-b5e040ca7391" /></symbol><symbol
         overflow="visible"
         id="id-693265b2-6483-46ec-b242-9666cfd76587"><path
           style="stroke:none;stroke-width:0"
           d="m 4.84375,-3.796875 c 0.046875,-0.140625 0.046875,-0.15625 0.046875,-0.234375 0,-0.171875 -0.140625,-0.265625 -0.296875,-0.265625 -0.09375,0 -0.25,0.0625 -0.34375,0.203125 -0.015625,0.0625 -0.109375,0.359375 -0.140625,0.546875 -0.078125,0.25 -0.140625,0.53125 -0.203125,0.796875 l -0.453125,1.796875 c -0.03125,0.140625 -0.46875,0.84375 -1.125,0.84375 -0.5,0 -0.609375,-0.4375 -0.609375,-0.8125 C 1.71875,-1.375 1.890625,-2 2.21875,-2.875 2.375,-3.28125 2.421875,-3.390625 2.421875,-3.59375 c 0,-0.4375 -0.3125,-0.8125 -0.8125,-0.8125 -0.953125,0 -1.3125,1.453125 -1.3125,1.53125 0,0.109375 0.09375,0.109375 0.109375,0.109375 0.109375,0 0.109375,-0.03125 0.15625,-0.1875 0.28125,-0.9375 0.671875,-1.234375 1.015625,-1.234375 0.078125,0 0.25,0 0.25,0.3125 0,0.25 -0.109375,0.515625 -0.171875,0.703125 -0.40625,1.0625 -0.578125,1.625 -0.578125,2.09375 0,0.890625 0.625,1.1875 1.21875,1.1875 0.390625,0 0.71875,-0.171875 1,-0.453125 -0.125,0.515625 -0.25,1.015625 -0.640625,1.546875 -0.265625,0.328125 -0.640625,0.625 -1.09375,0.625 -0.140625,0 -0.59375,-0.03125 -0.765625,-0.421875 0.15625,0 0.296875,0 0.421875,-0.125 C 1.328125,1.203125 1.421875,1.0625 1.421875,0.875 1.421875,0.5625 1.15625,0.53125 1.0625,0.53125 0.828125,0.53125 0.5,0.6875 0.5,1.171875 c 0,0.5 0.4375,0.875 1.0625,0.875 1.015625,0 2.046875,-0.90625 2.328125,-2.03125 z m 0,0"
           id="id-bc50a5bf-5252-48ed-9f39-a77a7314db2c" /></symbol></g></defs><g
     inkscape:label="Layer 1"
     inkscape:groupmode="layer"
     id="layer1"><ellipse
       style="fill:#ff0000;stroke-width:2.265"
       id="path136"
       cx="43.126122"
       cy="83.044083"
       rx="3.4567461"
       ry="3.3771052"
       inkscape:export-filename="gpi_tex.pdf"
       inkscape:export-xdpi="500"
       inkscape:export-ydpi="500" /><ellipse
       style="fill:#ff0000;stroke-width:2.265"
       id="ellipse138"
       cx="143.0311"
       cy="105.26857"
       rx="3.4567461"
       ry="3.3771052" /><path
       style="fill:none;stroke:#000000;stroke-width:0.465;stroke-linecap:butt;stroke-linejoin:miter;stroke-dasharray:0.93, 1.86;stroke-dashoffset:0;stroke-opacity:1"
       d="m 64.843126,105.27931 74.116704,0.16041"
       id="path3534" /><path
       style="fill:none;stroke:#000000;stroke-width:0.365;stroke-linecap:butt;stroke-linejoin:miter;stroke-dasharray:0.73, 1.46;stroke-dashoffset:0;stroke-opacity:1"
       d="M 60.881425,162.81832 61.0215,110.07357"
       id="path4096" /><text
       xml:space="preserve"
       style="font-size:5.82377px;line-height:1.25;font-family:sans-serif;stroke-width:0.727971"
       x="40.537128"
       y="62.817226"
       id="text45-3"><tspan
         sodipodi:role="line"
         id="tspan45-7"
         style="stroke-width:0.727971"
         x="40.537128"
         y="62.817226">$P_0$</tspan></text><text
       xml:space="preserve"
       style="font-size:5.13442px;line-height:1.25;font-family:sans-serif;stroke-width:0.641802"
       x="130.5"
       y="22.563284"
       id="text45-3-9"><tspan
         sodipodi:role="line"
         id="tspan45-7-7"
         style="stroke-width:0.641802"
         x="130.5"
         y="22.563284">$P_x$</tspan></text><text
       xml:space="preserve"
       style="font-size:6.11191px;line-height:1.25;font-family:sans-serif;stroke-width:0.763988"
       x="94.822861"
       y="29.764494"
       id="text45-3-8"
       transform="scale(0.7991209,1.2513751)"><tspan
         sodipodi:role="line"
         id="tspan45-7-5"
         style="stroke-width:0.763988"
         x="94.822861"
         y="29.764494">$P_y$</tspan></text><path
       style="fill:#2b0000;fill-opacity:1;stroke:#000000;stroke-width:0.2;stroke-dasharray:none;marker-end:url(#Triangle)"
       d="m 27.327796,282.60063 c 0,-31.87732 0,-63.75465 0,-95.63198"
       id="path1"
       inkscape:path-effect="#path-effect1"
       inkscape:original-d="m 27.327796,282.60063 c 0,-31.87732 0,-63.75465 0,-95.63198"
       inkscape:export-filename="grid.pdf"
       inkscape:export-xdpi="500"
       inkscape:export-ydpi="500"
       transform="translate(284.39648,-54.538217)" /><path
       style="fill:#2b0000;fill-opacity:1;stroke:#000000;stroke-width:0.2;stroke-dasharray:none;marker-end:url(#Triangle)"
       d="m 15.298081,275.88289 c 33.744992,0 67.489985,0 101.234979,0"
       id="path2"
       inkscape:path-effect="#path-effect3"
       inkscape:original-d="m 15.298081,275.88289 c 33.744992,0 67.489985,0 101.234979,0"
       transform="translate(284.39648,-54.538217)" /><text
       xml:space="preserve"
       style="font-size:4.11404px;font-family:sans-serif;-inkscape-font-specification:'sans-serif, ';fill:#2b0000;fill-opacity:1;stroke:#000000;stroke-width:0.145773;stroke-dasharray:none"
       x="307.01273"
       y="127.14478"
       id="text3"><tspan
         sodipodi:role="line"
         id="tspan3"
         style="stroke-width:0.145773;stroke-dasharray:none"
         x="307.01273"
         y="127.14478">$x$</tspan></text><text
       xml:space="preserve"
       style="font-size:4.11404px;font-family:sans-serif;-inkscape-font-specification:'sans-serif, ';fill:#2b0000;fill-opacity:1;stroke:#000000;stroke-width:0.145773;stroke-dasharray:none"
       x="406.46628"
       y="222.52028"
       id="text3-4"><tspan
         sodipodi:role="line"
         style="stroke-width:0.145773;stroke-dasharray:none"
         x="406.46628"
         y="222.52028"
         id="tspan4">$y$</tspan></text><ellipse
       style="fill:#ff0000;stroke-width:2.265"
       id="ellipse5"
       cx="380.69791"
       cy="151.16258"
       rx="3.4567461"
       ry="3.3771052" /><ellipse
       style="fill:#ff0000;stroke-width:2.265"
       id="ellipse6"
       cx="387.39346"
       cy="216.39027"
       rx="3.4567461"
       ry="3.3771052" /><text
       xml:space="preserve"
       style="font-size:4.11404px;font-family:sans-serif;-inkscape-font-specification:'sans-serif, ';fill:#2b0000;fill-opacity:1;stroke:#000000;stroke-width:0.145773;stroke-dasharray:none"
       x="323.97586"
       y="189.67441"
       id="text3-47"><tspan
         sodipodi:role="line"
         id="tspan3-7"
         style="stroke-width:0.145773;stroke-dasharray:none"
         x="323.97586"
         y="189.67441">$P_0$</tspan></text><text
       xml:space="preserve"
       style="font-size:4.11404px;font-family:sans-serif;-inkscape-font-specification:'sans-serif, ';fill:#2b0000;fill-opacity:1;stroke:#000000;stroke-width:0.145773;stroke-dasharray:none"
       x="376.86099"
       y="144.15408"
       id="text3-47-1"><tspan
         sodipodi:role="line"
         id="tspan3-7-2"
         style="stroke-width:0.145773;stroke-dasharray:none"
         x="376.86099"
         y="144.15408">$P_1$</tspan></text><text
       xml:space="preserve"
       style="font-size:4.11404px;font-family:sans-serif;-inkscape-font-specification:'sans-serif, ';fill:#2b0000;fill-opacity:1;stroke:#000000;stroke-width:0.145773;stroke-dasharray:none"
       x="384.41345"
       y="210.39346"
       id="text3-47-6"><tspan
         sodipodi:role="line"
         id="tspan3-7-8"
         style="stroke-width:0.145773;stroke-dasharray:none"
         x="384.41345"
         y="210.39346">$P_2$</tspan></text><path
       style="fill:#2b0000;fill-opacity:1;stroke:#000000;stroke-width:0.138946;stroke-dasharray:0.277893, 0.138946;stroke-dashoffset:0;marker-end:url(#DartArrow)"
       d="m 328.09512,196.45478 48.72302,-41.95063"
       id="path6" /><path
       style="fill:#2b0000;fill-opacity:1;stroke:#000000;stroke-width:0.15;stroke-dasharray:0.3, 0.15;stroke-dashoffset:0;marker-end:url(#DartArrow)"
       d="m 43.698644,250.993 c 19.766112,6.64516 39.532229,13.29033 59.298346,19.93549"
       id="path8"
       inkscape:path-effect="#path-effect8"
       inkscape:original-d="m 43.698644,250.993 c 19.766113,6.64516 39.532228,13.29033 59.298346,19.93549"
       transform="matrix(0.91433641,0,0,0.91433641,288.13782,-33.043346)" /><ellipse
       style="fill:#ff0000;stroke-width:2.265"
       id="ellipse248"
       cx="328.09872"
       cy="196.45059"
       rx="3.4567461"
       ry="3.3771052" /><text
       xml:space="preserve"
       style="font-size:4.11404px;font-family:sans-serif;-inkscape-font-specification:'sans-serif, ';fill:#2b0000;fill-opacity:1;stroke:#000000;stroke-width:0.145773;stroke-dasharray:none"
       x="149.50522"
       y="356.53693"
       id="text3-47-11"
       transform="rotate(-39.525451)"><tspan
         sodipodi:role="line"
         id="tspan3-7-0"
         style="stroke-width:0.145773;stroke-dasharray:none"
         x="149.50522"
         y="356.53693">$(x_1, y_1)$</tspan></text><text
       xml:space="preserve"
       style="font-size:4.11404px;font-family:sans-serif;-inkscape-font-specification:'sans-serif, ';fill:#2b0000;fill-opacity:1;stroke:#000000;stroke-width:0.145773;stroke-dasharray:none"
       x="388.73511"
       y="74.452545"
       id="text3-47-11-6"
       transform="rotate(19.286673)"><tspan
         sodipodi:role="line"
         id="tspan3-7-0-4"
         style="stroke-width:0.145773;stroke-dasharray:none"
         x="388.73511"
         y="74.452545">$(x_2, y_2)$</tspan></text></g></svg>
