<?xml version="1.0" encoding="UTF-8" standalone="no"?>
<!-- Created with Inkscape (http://www.inkscape.org/) -->

<svg
   width="210mm"
   height="297mm"
   viewBox="0 0 210 297"
   version="1.1"
   id="svg1"
   inkscape:version="1.3.2 (1:1.3.2+202311252150+091e20ef0f)"
   sodipodi:docname="intermittency.svg"
   xmlns:inkscape="http://www.inkscape.org/namespaces/inkscape"
   xmlns:sodipodi="http://sodipodi.sourceforge.net/DTD/sodipodi-0.dtd"
   xmlns="http://www.w3.org/2000/svg"
   xmlns:svg="http://www.w3.org/2000/svg">
  <sodipodi:namedview
     id="namedview1"
     pagecolor="#ffffff"
     bordercolor="#000000"
     borderopacity="0.25"
     inkscape:showpageshadow="2"
     inkscape:pageopacity="0.0"
     inkscape:pagecheckerboard="0"
     inkscape:deskcolor="#d1d1d1"
     inkscape:document-units="mm"
     inkscape:zoom="2"
     inkscape:cx="2778.5"
     inkscape:cy="313.5"
     inkscape:window-width="2490"
     inkscape:window-height="1376"
     inkscape:window-x="0"
     inkscape:window-y="0"
     inkscape:window-maximized="1"
     inkscape:current-layer="layer1" />
  <defs
     id="defs1">
    <marker
       style="overflow:visible"
       id="marker59"
       refX="0"
       refY="0"
       orient="auto-start-reverse"
       inkscape:stockid="Triangle arrow"
       markerWidth="1"
       markerHeight="1"
       viewBox="0 0 1 1"
       inkscape:isstock="true"
       inkscape:collect="always"
       preserveAspectRatio="xMidYMid">
      <path
         transform="scale(0.5)"
         style="fill:context-stroke;fill-rule:evenodd;stroke:context-stroke;stroke-width:1pt"
         d="M 5.77,0 -2.88,5 V -5 Z"
         id="path59" />
    </marker>
    <inkscape:path-effect
       effect="bspline"
       id="path-effect58"
       is_visible="true"
       lpeversion="1.3"
       weight="33.333333"
       steps="2"
       helper_size="0"
       apply_no_weight="true"
       apply_with_weight="true"
       only_selected="false"
       uniform="false" />
    <inkscape:path-effect
       effect="bspline"
       id="path-effect57"
       is_visible="true"
       lpeversion="1.3"
       weight="33.333333"
       steps="2"
       helper_size="0"
       apply_no_weight="true"
       apply_with_weight="true"
       only_selected="false"
       uniform="false" />
    <marker
       style="overflow:visible"
       id="Triangle"
       refX="0"
       refY="0"
       orient="auto-start-reverse"
       inkscape:stockid="Triangle arrow"
       markerWidth="1"
       markerHeight="1"
       viewBox="0 0 1 1"
       inkscape:isstock="true"
       inkscape:collect="always"
       preserveAspectRatio="xMidYMid">
      <path
         transform="scale(0.5)"
         style="fill:context-stroke;fill-rule:evenodd;stroke:context-stroke;stroke-width:1pt"
         d="M 5.77,0 -2.88,5 V -5 Z"
         id="path135" />
    </marker>
    <inkscape:path-effect
       effect="bspline"
       id="path-effect2"
       is_visible="true"
       lpeversion="1.3"
       weight="33.333333"
       steps="2"
       helper_size="0"
       apply_no_weight="true"
       apply_with_weight="true"
       only_selected="false"
       uniform="false" />
    <inkscape:path-effect
       effect="bspline"
       id="path-effect1"
       is_visible="true"
       lpeversion="1.3"
       weight="33.333333"
       steps="2"
       helper_size="0"
       apply_no_weight="true"
       apply_with_weight="true"
       only_selected="false"
       uniform="false" />
    <marker
       style="overflow:visible"
       id="Triangle-9"
       refX="0"
       refY="0"
       orient="auto-start-reverse"
       inkscape:stockid="Triangle arrow"
       markerWidth="1"
       markerHeight="1"
       viewBox="0 0 1 1"
       inkscape:isstock="true"
       inkscape:collect="always"
       preserveAspectRatio="xMidYMid">
      <path
         transform="scale(0.5)"
         style="fill:context-stroke;fill-rule:evenodd;stroke:context-stroke;stroke-width:1pt"
         d="M 5.77,0 -2.88,5 V -5 Z"
         id="path135-7" />
    </marker>
    <inkscape:path-effect
       effect="bspline"
       id="path-effect2-3"
       is_visible="true"
       lpeversion="1.3"
       weight="33.333333"
       steps="2"
       helper_size="0"
       apply_no_weight="true"
       apply_with_weight="true"
       only_selected="false"
       uniform="false" />
  </defs>
  <g
     inkscape:label="Layer 1"
     inkscape:groupmode="layer"
     id="layer1">
    <path
       style="fill:#000000;stroke:#000000;stroke-width:0.299101;stroke-dasharray:none;marker-end:url(#Triangle)"
       d="m 695.87128,83.115675 c 14.03985,0 28.0797,0 42.11955,0"
       id="path1"
       inkscape:path-effect="#path-effect2"
       inkscape:original-d="m 695.87128,83.115675 c 14.03985,0 28.0797,0 42.11955,0"
       transform="translate(-4.1635079,-32.170656)"
       inkscape:export-filename="intermittency.pdf"
       inkscape:export-xdpi="96"
       inkscape:export-ydpi="96" />
    <path
       sodipodi:type="spiral"
       style="fill:none;fill-rule:evenodd;stroke:#000000;stroke-width:0.06461096;stroke-dasharray:none"
       id="path2"
       sodipodi:cx="693.64368"
       sodipodi:cy="87.992821"
       sodipodi:expansion="1"
       sodipodi:revolution="3"
       sodipodi:radius="1.9907119"
       sodipodi:argument="-18.020342"
       sodipodi:t0="0"
       d="m 693.64368,87.992821 c 0.0674,0.0736 -0.066,0.12719 -0.12233,0.112053 -0.15279,-0.04102 -0.16892,-0.239727 -0.10178,-0.356712 0.1201,-0.209259 0.40871,-0.221736 0.59109,-0.0915 0.26766,0.191127 0.27624,0.580029 0.0812,0.825477 -0.25992,0.327144 -0.75218,0.331458 -1.05986,0.07095 -0.38718,-0.327824 -0.38706,-0.924732 -0.0607,-1.294241 0.39529,-0.447526 1.09751,-0.442873 1.52862,-0.0504 0.50806,0.46252 0.49883,1.270425 0.0401,1.763007 -0.52959,0.568704 -1.44343,0.55487 -1.99739,0.02984 -0.62943,-0.59657 -0.61098,-1.616512 -0.0196,-2.231772 0.66347,-0.690228 1.78963,-0.667134 2.46615,-0.0093 0.75106,0.730331 0.72332,1.962797 -9.9e-4,2.700537" />
    <path
       sodipodi:type="spiral"
       style="fill:none;fill-rule:evenodd;stroke:#000000;stroke-width:0.06461096;stroke-dasharray:none"
       id="path3"
       sodipodi:cx="695.3418"
       sodipodi:cy="76.728897"
       sodipodi:expansion="1"
       sodipodi:revolution="3"
       sodipodi:radius="1.4946911"
       sodipodi:argument="-18.208166"
       sodipodi:t0="0"
       d="m 695.3418,76.728897 c 0.06,0.04484 -0.0308,0.103065 -0.0745,0.0998 -0.11844,-0.0088 -0.15821,-0.153147 -0.12508,-0.248852 0.0593,-0.171193 0.27039,-0.220859 0.42318,-0.150363 0.22422,0.103456 0.28508,0.389118 0.17564,0.597507 -0.14586,0.27775 -0.50836,0.349946 -0.77183,0.200922 -0.33156,-0.18753 -0.41515,-0.627844 -0.2262,-0.946162 0.22883,-0.385526 0.74746,-0.480542 1.12048,-0.251481 0.4396,0.26994 0.54606,0.867167 0.27677,1.294817 -0.31092,0.49374 -0.98693,0.611653 -1.46915,0.302041 -0.54793,-0.351801 -0.6773,-1.106727 -0.32732,-1.643473 0.39263,-0.602148 1.22656,-0.742998 1.8178,-0.3526 0.6564,0.433415 0.80872,1.346405 0.37788,1.992128" />
    <path
       sodipodi:type="spiral"
       style="fill:none;fill-rule:evenodd;stroke:#000000;stroke-width:0.06461096;stroke-dasharray:none"
       id="path4"
       sodipodi:cx="712.97888"
       sodipodi:cy="74.896667"
       sodipodi:expansion="1"
       sodipodi:revolution="3"
       sodipodi:radius="2.1172781"
       sodipodi:argument="-18.04307"
       sodipodi:t0="0"
       d="m 712.97888,74.896667 c 0.0735,0.07663 -0.067,0.136836 -0.12736,0.122104 -0.16345,-0.03992 -0.18541,-0.25082 -0.11684,-0.376833 0.12264,-0.225409 0.42922,-0.245652 0.6263,-0.11158 0.28922,0.196755 0.30774,0.610069 0.10632,0.875769 -0.26847,0.354136 -0.79179,0.370621 -1.12524,0.101057 -0.41962,-0.339219 -0.43391,-0.973916 -0.0958,-1.374706 0.4095,-0.48541 1.15628,-0.497435 1.62418,-0.09053 0.55139,0.47952 0.56111,1.338791 0.0853,1.873642 -0.54938,0.617507 -1.5214,0.624885 -2.12311,0.08001 -0.6837,-0.61912 -0.68873,-1.704075 -0.0747,-2.372578 0.68879,-0.749959 1.8868,-0.752623 2.62205,-0.06949 0.81626,0.75841 0.81655,2.069566 0.0642,2.871515" />
    <path
       sodipodi:type="spiral"
       style="fill:none;fill-rule:evenodd;stroke:#000000;stroke-width:0.06461096;stroke-dasharray:none"
       id="path5"
       sodipodi:cx="716.09265"
       sodipodi:cy="89.716286"
       sodipodi:expansion="1"
       sodipodi:revolution="3"
       sodipodi:radius="6.4509606"
       sodipodi:argument="-17.86305"
       sodipodi:t0="0"
       d="m 716.09265,89.716286 c 0.17841,0.269783 -0.27564,0.373598 -0.4484,0.296533 -0.46816,-0.20884 -0.41894,-0.852998 -0.14467,-1.193328 0.49062,-0.608772 1.42065,-0.502208 1.93826,0.0072 0.75963,0.747569 0.58967,1.996615 -0.15905,2.68319 -0.99794,0.915097 -2.57563,0.679026 -3.42813,-0.310922 -1.07277,-1.245748 -0.76938,-3.156102 0.46279,-4.173052 1.49232,-1.231662 3.73741,-0.86032 4.91798,0.61465 1.39127,1.738202 0.95163,4.319238 -0.76651,5.662914 -1.98366,1.551327 -4.90141,1.043177 -6.40785,-0.918378 -1.7117,-2.228844 -1.13489,-5.483827 1.07025,-7.152775 2.47383,-1.872308 6.06642,-1.226745 7.8977,1.222105 2.03308,2.718689 1.31869,6.649147 -1.37397,8.642637" />
    <path
       sodipodi:type="spiral"
       style="fill:none;fill-rule:evenodd;stroke:#000000;stroke-width:0.063;stroke-dasharray:none"
       id="path10"
       sodipodi:cx="707.45337"
       sodipodi:cy="69.880173"
       sodipodi:expansion="1"
       sodipodi:revolution="3"
       sodipodi:radius="0.96870053"
       sodipodi:argument="-17.802105"
       sodipodi:t0="0"
       d="m 707.45337,69.880173 c 0.0243,0.04207 -0.0447,0.05348 -0.0699,0.04035 -0.0683,-0.03558 -0.055,-0.131684 -0.0108,-0.180186 0.0791,-0.08676 0.21753,-0.06228 0.29045,0.01881 0.10702,0.118997 0.0701,0.304656 -0.0484,0.400715 -0.15795,0.128032 -0.39226,0.07822 -0.51098,-0.07796 -0.1494,-0.196531 -0.0865,-0.480089 0.10753,-0.621245 0.23494,-0.170959 0.56805,-0.09477 0.73151,0.137107 0.19263,0.273255 0.10313,0.656093 -0.16668,0.841775 -0.31151,0.214378 -0.74419,0.111528 -0.95204,-0.196258 -0.23618,-0.349726 -0.11995,-0.832323 0.22583,-1.062305 0.38792,-0.258005 0.92049,-0.128386 1.17257,0.255409 0.27986,0.426085 0.13684,1.008668 -0.28498,1.282835" />
    <path
       sodipodi:type="spiral"
       style="fill:none;fill-rule:evenodd;stroke:#000000;stroke-width:0.063;stroke-dasharray:none"
       id="path13"
       sodipodi:cx="722.23376"
       sodipodi:cy="63.566891"
       sodipodi:expansion="1"
       sodipodi:revolution="3"
       sodipodi:radius="2.9078522"
       sodipodi:argument="-17.772339"
       sodipodi:t0="0"
       d="m 722.23376,63.566891 c 0.0691,0.128393 -0.13899,0.156456 -0.21339,0.114807 -0.20164,-0.112867 -0.15324,-0.400026 -0.0162,-0.541604 0.2451,-0.253249 0.65825,-0.167436 0.86981,0.08237 0.31048,0.366609 0.18318,0.920378 -0.18097,1.198015 -0.48535,0.370046 -1.18395,0.199649 -1.52622,-0.279558 -0.43071,-0.603033 -0.2165,-1.44822 0.37815,-1.854425 0.72021,-0.491968 1.71289,-0.233595 2.18263,0.47674 0.55358,0.837105 0.25083,1.977804 -0.57533,2.510836 -0.95383,0.615405 -2.24288,0.268151 -2.83904,-0.673923 -0.67739,-1.070443 -0.28554,-2.508082 0.77251,-3.167246 1.18698,-0.739481 2.77337,-0.302985 3.49546,0.871105 0.80165,1.303462 0.32046,3.03871 -0.9697,3.823657" />
    <path
       sodipodi:type="spiral"
       style="fill:none;fill-rule:evenodd;stroke:#000000;stroke-width:0.0638082;stroke-dasharray:none"
       id="path18"
       sodipodi:cx="726.54736"
       sodipodi:cy="89.894112"
       sodipodi:expansion="1"
       sodipodi:revolution="3"
       sodipodi:radius="1.3168317"
       sodipodi:argument="-17.300488"
       sodipodi:t0="0"
       d="m 726.54736,89.894112 c 0.001,0.06601 -0.0883,0.0345 -0.10971,0.0024 -0.0581,-0.08703 0.0205,-0.192901 0.10494,-0.221805 0.151,-0.0517 0.29999,0.06795 0.3339,0.212268 0.0498,0.211787 -0.11556,0.408958 -0.31959,0.445993 -0.27195,0.04936 -0.51866,-0.16317 -0.55809,-0.42692 -0.0496,-0.331902 0.21077,-0.628733 0.53425,-0.670181 0.39177,-0.0502 0.73901,0.258353 0.78227,0.641572 0.051,0.451609 -0.30593,0.849415 -0.74889,0.894369 -0.51142,0.0519 -0.95991,-0.353508 -1.00647,-0.856223 -0.0529,-0.571217 0.40108,-1.07046 0.96355,-1.118558 0.63101,-0.05396 1.18106,0.44865 1.23065,1.070875 0.0551,0.690788 -0.49621,1.291687 -1.1782,1.342747" />
    <path
       sodipodi:type="spiral"
       style="fill:none;fill-rule:evenodd;stroke:#000000;stroke-width:0.0638082;stroke-dasharray:none"
       id="path23"
       sodipodi:cx="720.83191"
       sodipodi:cy="97.989304"
       sodipodi:expansion="1"
       sodipodi:revolution="3"
       sodipodi:radius="1.6855148"
       sodipodi:argument="-17.649021"
       sodipodi:t0="0"
       d="m 720.83191,97.989304 c 0.0306,0.07878 -0.0911,0.08009 -0.13094,0.05083 -0.10794,-0.0793 -0.0596,-0.241037 0.0293,-0.312708 0.15904,-0.128204 0.39058,-0.04938 0.49447,0.109402 0.15246,0.233025 0.0398,0.542499 -0.18951,0.676244 -0.30558,0.17826 -0.69529,0.03043 -0.85802,-0.269631 -0.20476,-0.377599 -0.0213,-0.848513 0.34975,-1.039779 0.44937,-0.23165 1.00198,-0.01225 1.22155,0.429859 0.25875,0.521007 0.003,1.155598 -0.50998,1.403315 -0.59256,0.285999 -1.30932,-0.0057 -1.58508,-0.590089 -0.31334,-0.66406 0.0146,-1.463111 0.6702,-1.766849 0.73553,-0.34075 1.61696,0.02345 1.94862,0.750317 0.36821,0.806962 -0.0323,1.770839 -0.83043,2.130385" />
    <path
       sodipodi:type="spiral"
       style="fill:none;fill-opacity:1;stroke:#000000;stroke-width:0.0629999;stroke-dasharray:none;stroke-opacity:1"
       id="path24"
       sodipodi:cx="694.612"
       sodipodi:cy="61.092686"
       sodipodi:expansion="1"
       sodipodi:revolution="3"
       sodipodi:radius="8.9845896"
       sodipodi:argument="-17.796707"
       sodipodi:t0="0"
       d="m 694.612,61.092686 c 0.22303,0.391387 -0.41755,0.493734 -0.65051,0.370687 -0.63132,-0.333449 -0.50345,-1.224083 -0.0909,-1.671712 0.73802,-0.800702 2.02063,-0.566741 2.69292,0.188962 0.98661,1.109025 0.6351,2.829117 -0.46879,3.714111 -1.47131,1.179558 -3.64201,0.705821 -4.73531,-0.74861 -1.37581,-1.830253 -0.77779,-4.457037 1.02843,-5.756511 2.18758,-1.573837 5.27327,-0.850495 6.77771,1.308259 1.77293,2.544017 0.92366,6.09026 -1.58808,7.798911 -2.89991,1.972705 -6.90775,0.997134 -8.82011,-1.867908 -2.17294,-3.255444 -1.07082,-7.725598 2.14773,-9.84131 3.61074,-2.37351 8.5437,-1.144669 10.86251,2.427557 2.57432,3.965847 1.21863,9.361997 -2.70738,11.883709" />
    <path
       sodipodi:type="spiral"
       style="fill:none;fill-opacity:1;stroke:#000000;stroke-width:0.0629999;stroke-dasharray:none;stroke-opacity:1"
       id="path25"
       sodipodi:cx="709.63361"
       sodipodi:cy="62.85117"
       sodipodi:expansion="1"
       sodipodi:revolution="3"
       sodipodi:radius="0.52985412"
       sodipodi:argument="-17.563261"
       sodipodi:t0="0"
       d="m 709.63361,62.85117 c 0.007,0.0255 -0.0307,0.02263 -0.0424,0.01239 -0.0317,-0.02774 -0.0122,-0.0771 0.0176,-0.09715 0.0533,-0.03587 0.12366,-0.005 0.15192,0.04758 0.0415,0.07709 -0.002,0.170982 -0.0776,0.206698 -0.10051,0.0476 -0.21859,-0.0092 -0.26147,-0.107552 -0.054,-0.123779 0.0162,-0.266329 0.13754,-0.316244 0.14698,-0.06045 0.31415,0.02314 0.37101,0.167525 0.067,0.170147 -0.0301,0.362023 -0.19751,0.425789 -0.19329,0.07362 -0.40993,-0.03703 -0.48056,-0.227497 -0.0803,-0.216422 0.044,-0.457857 0.25748,-0.535335 0.23955,-0.08692 0.50581,0.05088 0.59011,0.28747 0.0936,0.262656 -0.0578,0.55376 -0.31746,0.64488" />
    <path
       sodipodi:type="spiral"
       style="fill:none;fill-opacity:1;stroke:#000000;stroke-width:0.0629999;stroke-dasharray:none;stroke-opacity:1"
       id="path26"
       sodipodi:cx="731.40424"
       sodipodi:cy="70.924164"
       sodipodi:expansion="1"
       sodipodi:revolution="3"
       sodipodi:radius="0.89895988"
       sodipodi:argument="-17.784872"
       sodipodi:t0="0"
       d="m 731.40424,70.924164 c 0.0219,0.03942 -0.0424,0.0489 -0.0655,0.03632 -0.0628,-0.03411 -0.0489,-0.123064 -0.007,-0.16736 0.0748,-0.07923 0.20283,-0.05431 0.2692,0.02209 0.0974,0.112125 0.0602,0.283802 -0.0513,0.371037 -0.1486,0.116271 -0.36521,0.0663 -0.47287,-0.08051 -0.13548,-0.184743 -0.0725,-0.446841 0.10971,-0.574713 0.22073,-0.15487 0.52859,-0.07885 0.67655,0.138915 0.17437,0.256625 0.0852,0.610417 -0.16812,0.778391 -0.29247,0.193933 -0.69229,0.09158 -0.88023,-0.197326 -0.21355,-0.328276 -0.098,-0.774205 0.22653,-0.982068 0.36406,-0.233191 0.85614,-0.104406 1.08391,0.255737 0.25286,0.399826 0.11083,0.938099 -0.28495,1.185744" />
    <path
       sodipodi:type="spiral"
       style="fill:none;fill-opacity:1;stroke:#000000;stroke-width:0.0629999;stroke-dasharray:none;stroke-opacity:1"
       id="path27"
       sodipodi:cx="723.56775"
       sodipodi:cy="69.212547"
       sodipodi:expansion="1"
       sodipodi:revolution="3"
       sodipodi:radius="0.5481717"
       sodipodi:argument="-18.792385"
       sodipodi:t0="0"
       d="m 723.56775,69.212547 c 0.0274,0.0016 0.0114,0.03776 -0.003,0.04561 -0.038,0.02125 -0.0794,-0.01485 -0.0886,-0.05083 -0.0165,-0.06436 0.038,-0.122259 0.099,-0.131599 0.0895,-0.01371 0.16592,0.06137 0.17459,0.14726 0.0116,0.114473 -0.0847,0.209885 -0.19547,0.217591 -0.13936,0.0097 -0.254,-0.108094 -0.26059,-0.243693 -0.008,-0.164229 0.13146,-0.298202 0.29191,-0.303583 0.18908,-0.0063 0.34246,0.154827 0.34658,0.340126 0.005,0.213935 -0.1782,0.386749 -0.38834,0.389575 -0.23879,0.0032 -0.43107,-0.201564 -0.43257,-0.436559 -0.002,-0.263628 0.22493,-0.475401 0.48477,-0.475567 0.28847,-1.85e-4 0.51975,0.248303 0.51857,0.532992" />
    <path
       sodipodi:type="spiral"
       style="fill:none;fill-opacity:1;stroke:#000000;stroke-width:0.0629999;stroke-dasharray:none;stroke-opacity:1"
       id="path28"
       sodipodi:cx="714.48163"
       sodipodi:cy="67.044151"
       sodipodi:expansion="1"
       sodipodi:revolution="3"
       sodipodi:radius="0.68450904"
       sodipodi:argument="-17.946692"
       sodipodi:t0="0"
       d="m 714.48163,67.044151 c 0.0213,0.02694 -0.0258,0.04195 -0.0448,0.03533 -0.0513,-0.01793 -0.0519,-0.08648 -0.0259,-0.124898 0.0465,-0.06872 0.14576,-0.0657 0.20501,-0.01642 0.087,0.07231 0.08,0.205892 0.007,0.285127 -0.0974,0.105608 -0.26633,0.09463 -0.36524,-0.0025 -0.12448,-0.122213 -0.10933,-0.326901 0.0119,-0.445355 0.14688,-0.143464 0.38756,-0.124101 0.52547,0.02139 0.16252,0.171462 0.13891,0.448275 -0.0308,0.605584 -0.196,0.18162 -0.50902,0.153754 -0.6857,-0.0403 -0.20075,-0.220501 -0.16862,-0.569792 0.0498,-0.765812 0.24498,-0.219905 0.63058,-0.183492 0.84593,0.05921 0.23907,0.269448 0.19837,0.691382 -0.0687,0.926041" />
    <path
       sodipodi:type="spiral"
       style="fill:none;fill-opacity:1;stroke:#000000;stroke-width:0.0629999;stroke-dasharray:none;stroke-opacity:1"
       id="path29"
       sodipodi:cx="698.50946"
       sodipodi:cy="89.732559"
       sodipodi:expansion="1"
       sodipodi:revolution="3"
       sodipodi:radius="0.54662263"
       sodipodi:argument="-17.761578"
       sodipodi:t0="0"
       d="m 698.50946,89.732559 c 0.0127,0.02427 -0.0264,0.02913 -0.0403,0.02115 -0.0377,-0.02162 -0.028,-0.0755 -0.002,-0.101839 0.0466,-0.04711 0.12407,-0.03014 0.16334,0.01724 0.0576,0.06954 0.0326,0.173375 -0.0364,0.224826 -0.092,0.06858 -0.22296,0.03513 -0.28632,-0.05564 -0.0797,-0.114224 -0.0378,-0.272661 0.0748,-0.347813 0.13637,-0.09102 0.32244,-0.04044 0.4093,0.09403 0.10237,0.158471 0.0431,0.372277 -0.11322,0.4708 -0.18054,0.113749 -0.42214,0.04587 -0.53229,-0.132421 -0.12517,-0.202582 -0.0486,-0.472023 0.15161,-0.593786 0.22462,-0.1366 0.52193,-0.05134 0.65528,0.170813 0.14805,0.246634 0.0541,0.571836 -0.19001,0.716773" />
    <path
       sodipodi:type="spiral"
       style="fill:none;fill-opacity:1;stroke:#000000;stroke-width:0.0629999;stroke-dasharray:none;stroke-opacity:1"
       id="path30"
       sodipodi:cx="711.86121"
       sodipodi:cy="98.332115"
       sodipodi:expansion="1"
       sodipodi:revolution="3"
       sodipodi:radius="0.63118511"
       sodipodi:argument="-18.17518"
       sodipodi:t0="0"
       d="m 711.86121,98.332115 c 0.0247,0.01976 -0.0145,0.04307 -0.0329,0.04108 -0.0499,-0.0054 -0.0646,-0.06684 -0.0493,-0.106771 0.0274,-0.07143 0.11719,-0.08945 0.1807,-0.05757 0.0932,0.04679 0.11489,0.168199 0.0658,0.254627 -0.0654,0.115194 -0.21942,0.140616 -0.32855,0.07405 -0.13732,-0.08377 -0.16647,-0.270766 -0.0823,-0.402483 0.10195,-0.159526 0.32216,-0.192405 0.47641,-0.09053 0.18177,0.120052 0.21839,0.373597 0.0988,0.550339 -0.13809,0.204055 -0.42505,0.244406 -0.62426,0.107017 -0.22636,-0.15611 -0.27045,-0.476532 -0.11526,-0.698195 0.1741,-0.248671 0.52802,-0.296503 0.77212,-0.1235 0.271,0.192067 0.32257,0.57952 0.13174,0.84605" />
    <path
       sodipodi:type="spiral"
       style="fill:none;fill-opacity:1;stroke:#000000;stroke-width:0.0629999;stroke-dasharray:none;stroke-opacity:1"
       id="path31"
       sodipodi:cx="696.45703"
       sodipodi:cy="98.183151"
       sodipodi:expansion="1"
       sodipodi:revolution="3"
       sodipodi:radius="0.46342152"
       sodipodi:argument="-17.351736"
       sodipodi:t0="0"
       d="m 696.45703,98.183151 c 0.002,0.02317 -0.0304,0.01372 -0.0385,0.0028 -0.022,-0.02954 0.004,-0.06817 0.0329,-0.07985 0.0521,-0.02089 0.10666,0.01847 0.12118,0.06858 0.0213,0.07354 -0.0332,0.145815 -0.10429,0.16251 -0.0947,0.02225 -0.18523,-0.048 -0.20384,-0.139984 -0.0234,-0.115756 0.0627,-0.224774 0.17569,-0.245173 0.13679,-0.0247 0.26439,0.07748 0.2865,0.211384 0.0261,0.157803 -0.0922,0.304051 -0.24708,0.327836 -0.17881,0.02746 -0.34374,-0.106939 -0.36917,-0.282784 -0.0289,-0.199806 0.12167,-0.383454 0.31848,-0.410498 0.2208,-0.03034 0.42319,0.13639 0.45183,0.354183 0.0318,0.241792 -0.15111,0.462921 -0.38988,0.493161" />
    <path
       sodipodi:type="spiral"
       style="fill:none;fill-opacity:1;stroke:#000000;stroke-width:0.0629999;stroke-dasharray:none;stroke-opacity:1"
       id="path32"
       sodipodi:cx="730.14673"
       sodipodi:cy="94.189194"
       sodipodi:expansion="1"
       sodipodi:revolution="3"
       sodipodi:radius="0.45133492"
       sodipodi:argument="-17.138409"
       sodipodi:t0="0"
       d="m 730.14673,94.189194 c -0.003,0.02241 -0.0318,0.0068 -0.0372,-0.0053 -0.0148,-0.03265 0.0176,-0.06411 0.0478,-0.06922 0.0539,-0.0091 0.0977,0.03958 0.1012,0.09027 0.005,0.07439 -0.0617,0.131939 -0.13277,0.133181 -0.0947,0.0017 -0.16641,-0.08388 -0.16516,-0.175273 0.002,-0.11501 0.10607,-0.201012 0.21778,-0.197141 0.13529,0.0047 0.23568,0.128262 0.22912,0.260279 -0.008,0.155577 -0.15046,0.270395 -0.30278,0.261101 -0.17586,-0.01073 -0.30514,-0.172665 -0.29308,-0.345284 0.0137,-0.196141 0.19487,-0.339902 0.38778,-0.325061 0.21643,0.01665 0.37468,0.217078 0.35704,0.43029 -0.0196,0.236705 -0.23928,0.409469 -0.47279,0.389021" />
    <path
       sodipodi:type="spiral"
       style="fill:none;fill-opacity:1;stroke:#000000;stroke-width:0.0629999;stroke-dasharray:none;stroke-opacity:1"
       id="path33"
       sodipodi:cx="723.74805"
       sodipodi:cy="85.477913"
       sodipodi:expansion="1"
       sodipodi:revolution="3"
       sodipodi:radius="0.41327375"
       sodipodi:argument="-17.432135"
       sodipodi:t0="0"
       d="m 723.74805,85.477913 c 0.003,0.02048 -0.026,0.01437 -0.034,0.0053 -0.0217,-0.02468 -0.002,-0.06086 0.0235,-0.07333 0.0448,-0.02231 0.0961,0.0088 0.11263,0.05229 0.0242,0.06384 -0.0191,0.131998 -0.0811,0.151926 -0.0826,0.02656 -0.16809,-0.0294 -0.19122,-0.109834 -0.0291,-0.101219 0.0397,-0.204297 0.13861,-0.230518 0.11982,-0.03176 0.24056,0.04994 0.26981,0.167381 0.0345,0.138406 -0.0602,0.276877 -0.19615,0.309111 -0.15698,0.03722 -0.31321,-0.07044 -0.34841,-0.224928 -0.04,-0.17554 0.0807,-0.349569 0.2537,-0.387705 0.1941,-0.04278 0.38594,0.09093 0.427,0.282476 0.0456,0.212652 -0.10117,0.422317 -0.31125,0.466298" />
    <path
       sodipodi:type="spiral"
       style="fill:none;fill-opacity:1;stroke:#000000;stroke-width:0.0629999;stroke-dasharray:none;stroke-opacity:1"
       id="path34"
       sodipodi:cx="703.37335"
       sodipodi:cy="78.657562"
       sodipodi:expansion="1"
       sodipodi:revolution="3"
       sodipodi:radius="0.51995826"
       sodipodi:argument="-17.552042"
       sodipodi:t0="0"
       d="m 703.37335,78.657562 c 0.007,0.0251 -0.0304,0.02187 -0.0417,0.0117 -0.0308,-0.02757 -0.0111,-0.07579 0.0183,-0.09514 0.0527,-0.03461 0.1214,-0.0035 0.14856,0.04836 0.0399,0.0761 -0.004,0.167754 -0.0784,0.201971 -0.0992,0.0456 -0.21439,-0.01143 -0.25539,-0.108416 -0.0516,-0.122053 0.0188,-0.26116 0.13845,-0.308803 0.14489,-0.0577 0.30801,0.02617 0.36222,0.16847 0.0639,0.167697 -0.0335,0.354909 -0.1985,0.415636 -0.19048,0.07011 -0.40184,-0.04085 -0.46905,-0.228525 -0.0764,-0.21325 0.0482,-0.448793 0.25855,-0.522469 0.23601,-0.08265 0.49576,0.0555 0.57588,0.28858 0.089,0.258766 -0.0628,0.542748 -0.3186,0.629302" />
    <path
       sodipodi:type="spiral"
       style="fill:none;fill-opacity:1;stroke:#000000;stroke-width:0.0629999;stroke-dasharray:none;stroke-opacity:1"
       id="path35"
       sodipodi:cx="705.46448"
       sodipodi:cy="86.632393"
       sodipodi:expansion="1"
       sodipodi:revolution="3"
       sodipodi:radius="0.47156143"
       sodipodi:argument="-18.017172"
       sodipodi:t0="0"
       d="m 705.46448,86.632393 c 0.0159,0.01749 -0.0157,0.03008 -0.0291,0.02645 -0.0362,-0.0098 -0.0398,-0.05691 -0.0238,-0.08457 0.0286,-0.04948 0.097,-0.05222 0.14008,-0.02123 0.0633,0.04547 0.065,0.137604 0.0186,0.1956 -0.0618,0.0773 -0.17842,0.07795 -0.25111,0.01601 -0.0915,-0.07795 -0.091,-0.219341 -0.0134,-0.306625 0.094,-0.105713 0.26031,-0.104083 0.36214,-0.01079 0.12,0.109943 0.11721,0.301313 0.008,0.417651 -0.12588,0.134317 -0.34234,0.130353 -0.47317,0.0056 -0.14865,-0.141788 -0.14351,-0.383378 -0.003,-0.528676 0.15768,-0.163003 0.42442,-0.156686 0.58418,-3.49e-4 0.17737,0.173565 0.16987,0.46549 -0.002,0.639702" />
    <path
       sodipodi:type="spiral"
       style="fill:none;fill-opacity:1;stroke:#000000;stroke-width:0.0629999;stroke-dasharray:none;stroke-opacity:1"
       id="path36"
       sodipodi:cx="702.25952"
       sodipodi:cy="92.751831"
       sodipodi:expansion="1"
       sodipodi:revolution="3"
       sodipodi:radius="3.9704123"
       sodipodi:argument="-17.583872"
       sodipodi:t0="0"
       d="m 702.25952,92.751831 c 0.0598,0.189876 -0.22644,0.174288 -0.31558,0.09939 -0.24157,-0.202962 -0.1032,-0.575728 0.1168,-0.730565 0.39352,-0.276966 0.92569,-0.05618 1.14554,0.332994 0.32264,0.571131 0.0102,1.2813 -0.54919,1.560522 -0.74563,0.372159 -1.63902,-0.03509 -1.9755,-0.76538 -0.42342,-0.91899 0.0801,-1.997787 0.98158,-2.39048 1.09182,-0.475604 2.35713,0.124876 2.80545,1.197767 0.52833,1.264365 -0.16953,2.71686 -1.41396,3.220437 -1.43673,0.581399 -3.07683,-0.214109 -3.63541,-1.630153 -0.6347,-1.609 0.25862,-3.43697 1.84634,-4.050395 1.78119,-0.68817 3.79724,0.303093 4.46538,2.06254 0.74176,1.95332 -0.34753,4.157597 -2.27874,4.880352" />
    <path
       sodipodi:type="spiral"
       style="fill:none;fill-opacity:1;stroke:#000000;stroke-width:0.0629999;stroke-dasharray:none;stroke-opacity:1"
       id="path37"
       sodipodi:cx="724.51068"
       sodipodi:cy="76.220337"
       sodipodi:expansion="1"
       sodipodi:revolution="3"
       sodipodi:radius="2.2614734"
       sodipodi:argument="-17.247673"
       sodipodi:t0="0"
       d="m 724.51068,76.220337 c -0.004,0.113332 -0.15451,0.05116 -0.18836,-0.0059 -0.0918,-0.154523 0.0527,-0.328956 0.20008,-0.370872 0.26363,-0.07498 0.50829,0.143734 0.55338,0.394302 0.0662,0.36772 -0.23526,0.690872 -0.58853,0.735888 -0.47085,0.06 -0.8747,-0.326852 -0.91839,-0.782748 -0.055,-0.573698 0.41845,-1.059148 0.97697,-1.100902 0.67643,-0.05057 1.24395,0.510064 1.28341,1.171192 0.0465,0.779117 -0.60167,1.428983 -1.36542,1.465918 -0.88177,0.04264 -1.61416,-0.693278 -1.64842,-1.559638 -0.0389,-0.984413 0.78488,-1.79944 1.75386,-1.830933 1.08704,-0.03533 1.98479,0.876493 2.01344,1.948084 0.0318,1.189668 -0.9681,2.17021 -2.14231,2.195948" />
    <path
       sodipodi:type="spiral"
       style="fill:none;fill-opacity:1;stroke:#000000;stroke-width:0.0629999;stroke-dasharray:none;stroke-opacity:1"
       id="path38"
       sodipodi:cx="730.23273"
       sodipodi:cy="77.49469"
       sodipodi:expansion="1"
       sodipodi:revolution="3"
       sodipodi:radius="3.5936568"
       sodipodi:argument="-17.241829"
       sodipodi:t0="0"
       d="m 730.23273,77.49469 c -0.007,0.180057 -0.246,0.07987 -0.29927,-0.01106 -0.14436,-0.246397 0.0868,-0.522239 0.32138,-0.587477 0.41963,-0.116696 0.80638,0.233121 0.87569,0.631705 0.10172,0.584939 -0.38025,1.095645 -0.94203,1.163898 -0.74877,0.09097 -1.38691,-0.527507 -1.45211,-1.252355 -0.082,-0.912146 0.67479,-1.679154 1.56268,-1.740317 1.07536,-0.07408 1.97197,0.82207 2.02853,1.873003 0.0667,1.238488 -0.96936,2.265138 -2.18333,2.316738 -1.40158,0.05957 -2.55854,-1.116645 -2.60495,-2.493653 -0.0527,-1.564643 1.26394,-2.852112 2.80398,-2.893157 1.72769,-0.04605 3.1458,1.411223 3.18137,3.114301 0.0395,1.890739 -1.55852,3.439584 -3.42463,3.469577" />
    <path
       sodipodi:type="spiral"
       style="fill:none;fill-opacity:1;stroke:#000000;stroke-width:0.0629999;stroke-dasharray:none;stroke-opacity:1"
       id="path39"
       sodipodi:cx="714.45374"
       sodipodi:cy="79.038361"
       sodipodi:expansion="1"
       sodipodi:revolution="3"
       sodipodi:radius="1.2543864"
       sodipodi:argument="-17.576694"
       sodipodi:t0="0"
       d="m 714.45374,79.038361 c 0.0185,0.06012 -0.0719,0.05455 -0.0999,0.03069 -0.0759,-0.06467 -0.0313,-0.182121 0.0386,-0.230539 0.12495,-0.08661 0.29257,-0.01565 0.36115,0.107798 0.10063,0.181167 3.3e-4,0.404819 -0.17704,0.491764 -0.23641,0.115883 -0.51773,-0.0148 -0.62238,-0.246283 -0.13169,-0.291292 0.0298,-0.63097 0.31552,-0.752987 0.34602,-0.14778 0.7444,0.0448 0.8836,0.384766 0.16405,0.400643 -0.0597,0.857941 -0.454,1.014212 -0.45522,0.18042 -0.97157,-0.07462 -1.14483,-0.523251 -0.19687,-0.509763 0.0895,-1.085239 0.59249,-1.275435 0.56429,-0.213372 1.19896,0.104365 1.40605,0.661734 0.22991,0.618785 -0.11922,1.312702 -0.73097,1.53666" />
    <path
       sodipodi:type="spiral"
       style="fill:none;fill-opacity:1;stroke:#000000;stroke-width:0.0629999;stroke-dasharray:none;stroke-opacity:1"
       id="path40"
       sodipodi:cx="733.87946"
       sodipodi:cy="89.331535"
       sodipodi:expansion="1"
       sodipodi:revolution="3"
       sodipodi:radius="2.6930969"
       sodipodi:argument="-17.503458"
       sodipodi:t0="0"
       d="m 733.87946,89.331535 c 0.0301,0.131634 -0.1626,0.105499 -0.21879,0.05 -0.15226,-0.150384 -0.0384,-0.394872 0.11878,-0.487571 0.28115,-0.165815 0.62892,0.01245 0.75635,0.287553 0.18702,0.40372 -0.0629,0.866844 -0.45633,1.025145 -0.52439,0.210991 -1.10623,-0.11303 -1.29393,-0.625109 -0.2362,-0.644399 0.163,-1.346339 0.79389,-1.562721 0.76409,-0.262067 1.58685,0.212858 1.83151,0.962666 0.28831,0.883623 -0.26266,1.827631 -1.13145,2.100296 -1.00305,0.314803 -2.06857,-0.3124 -2.36908,-1.300222 -0.34146,-1.122426 0.36212,-2.309643 1.469,-2.637872 1.24175,-0.368223 2.55079,0.411814 2.90666,1.63778 0.39507,1.361053 -0.46149,2.792014 -1.80656,3.175446" />
    <path
       sodipodi:type="spiral"
       style="fill:none;fill-opacity:1;stroke:#000000;stroke-width:0.0629999;stroke-dasharray:none;stroke-opacity:1"
       id="path41"
       sodipodi:cx="729.80066"
       sodipodi:cy="101.53069"
       sodipodi:expansion="1"
       sodipodi:revolution="3"
       sodipodi:radius="3.2644327"
       sodipodi:argument="-17.40839"
       sodipodi:t0="0"
       d="m 729.80066,101.53069 c 0.0212,0.1623 -0.20834,0.1086 -0.26975,0.0352 -0.16643,-0.19899 -9.1e-4,-0.4809 0.19942,-0.57467 0.35833,-0.16774 0.75747,0.0874 0.87959,0.43401 0.17921,0.50867 -0.17563,1.03876 -0.6686,1.18451 -0.65705,0.19426 -1.32185,-0.26368 -1.48943,-0.90319 -0.21087,-0.80476 0.3516,-1.60584 1.13778,-1.794349 0.95216,-0.228311 1.89032,0.439439 2.09926,1.372359 0.24623,1.09942 -0.52722,2.17514 -1.60695,2.40419 -1.24658,0.26445 -2.46015,-0.61498 -2.7091,-1.84154 -0.28288,-1.39369 0.70271,-2.745318 2.07612,-3.014023 1.54077,-0.301446 3.0306,0.790428 3.31895,2.310713 0.32012,1.68781 -0.87813,3.31596 -2.54531,3.62387" />
    <path
       sodipodi:type="spiral"
       style="fill:none;fill-opacity:1;stroke:#000000;stroke-width:0.0629999;stroke-dasharray:none;stroke-opacity:1"
       id="path42"
       sodipodi:cx="685.95917"
       sodipodi:cy="80.5401"
       sodipodi:expansion="1"
       sodipodi:revolution="3"
       sodipodi:radius="2.332303"
       sodipodi:argument="-17.022163"
       sodipodi:t0="0"
       d="m 685.95917,80.5401 c -0.0297,0.113109 -0.16711,0.0158 -0.188,-0.04933 -0.0566,-0.176486 0.12883,-0.318518 0.28665,-0.326664 0.2823,-0.01457 0.4778,0.261699 0.46533,0.523969 -0.0183,0.384891 -0.3958,0.640217 -0.76129,0.604002 -0.48714,-0.04827 -0.80388,-0.530265 -0.74267,-0.998612 0.077,-0.589366 0.66488,-0.968165 1.23593,-0.88134 0.69162,0.105156 1.13281,0.799584 1.02001,1.473255 -0.13293,0.793896 -0.93433,1.297674 -1.71057,1.158678 -0.8962,-0.160477 -1.46269,-1.069124 -1.29735,-1.947898 0.18787,-0.998518 1.20394,-1.627811 2.18522,-1.436016 1.10085,0.215166 1.79301,1.338764 1.57468,2.42254 -0.24238,1.203197 -1.4736,1.958262 -2.65986,1.713354" />
    <path
       sodipodi:type="spiral"
       style="fill:none;fill-opacity:1;stroke:#000000;stroke-width:0.0629999;stroke-dasharray:none;stroke-opacity:1"
       id="path43"
       sodipodi:cx="700.49811"
       sodipodi:cy="73.341652"
       sodipodi:expansion="1"
       sodipodi:revolution="3"
       sodipodi:radius="3.3042102"
       sodipodi:argument="-17.93837"
       sodipodi:t0="0"
       d="m 700.49811,73.341652 c 0.10152,0.130916 -0.12639,0.20144 -0.21759,0.168737 -0.24717,-0.08862 -0.24686,-0.419523 -0.11989,-0.603919 0.22712,-0.329841 0.70624,-0.311259 0.99025,-0.07103 0.41679,0.352544 0.37813,0.997048 0.0222,1.376575 -0.47443,0.505851 -1.28934,0.446085 -1.76291,-0.02668 -0.59593,-0.594921 -0.5146,-1.582332 0.0755,-2.149232 0.71474,-0.686592 1.87574,-0.583459 2.53556,0.124383 0.77759,0.834168 0.65252,2.169382 -0.17323,2.921889 -0.95337,0.868798 -2.4632,0.721717 -3.30822,-0.22209 -0.96016,-1.072414 -0.79101,-2.757135 0.27094,-3.694545 1.19136,-1.051633 3.05116,-0.860377 4.08088,0.319796 1.14318,1.310217 0.92979,3.345241 -0.36865,4.467202" />
    <path
       sodipodi:type="spiral"
       style="fill:none;fill-opacity:1;stroke:#000000;stroke-width:0.0629999;stroke-dasharray:none;stroke-opacity:1"
       id="path44"
       sodipodi:cx="706.45349"
       sodipodi:cy="74.682098"
       sodipodi:expansion="1"
       sodipodi:revolution="3"
       sodipodi:radius="1.014796"
       sodipodi:argument="-17.777195"
       sodipodi:t0="0"
       d="m 706.45349,74.682098 c 0.0243,0.04469 -0.0482,0.05484 -0.0743,0.04043 -0.0705,-0.03905 -0.0541,-0.139341 -0.007,-0.188981 0.0851,-0.0888 0.22943,-0.05955 0.30368,0.02727 0.10897,0.127413 0.0655,0.320884 -0.0611,0.418391 -0.16875,0.129961 -0.41284,0.07168 -0.5331,-0.09497 -0.15133,-0.209717 -0.078,-0.505034 0.12883,-0.647799 0.2505,-0.172908 0.59737,-0.08442 0.7625,0.162674 0.19461,0.291195 0.0909,0.68979 -0.19652,0.877208 -0.33183,0.216381 -0.78227,0.09738 -0.99191,-0.230375 -0.23821,-0.372416 -0.1039,-0.874788 0.26422,-1.106616 0.41298,-0.260077 0.96734,-0.110436 1.22132,0.298074 0.28197,0.453525 0.11699,1.059908 -0.33192,1.336026" />
    <path
       sodipodi:type="spiral"
       style="fill:none;fill-opacity:1;stroke:#000000;stroke-width:0.0629999;stroke-dasharray:none;stroke-opacity:1"
       id="path45"
       sodipodi:cx="718.50177"
       sodipodi:cy="75.5093"
       sodipodi:expansion="1"
       sodipodi:revolution="3"
       sodipodi:radius="3.1889668"
       sodipodi:argument="-17.306761"
       sodipodi:t0="0"
       d="m 718.50177,75.5093 c 0.004,0.159827 -0.21324,0.08489 -0.26564,0.0074 -0.14203,-0.209876 0.0468,-0.467449 0.25076,-0.538726 0.36487,-0.127498 0.72748,0.160003 0.81181,0.508965 0.12375,0.512117 -0.27363,0.992108 -0.76717,1.084893 -0.6578,0.123669 -1.2585,-0.38726 -1.35798,-1.02537 -0.12517,-0.802998 0.50086,-1.525775 1.28358,-1.63106 0.94798,-0.127515 1.79355,0.614413 1.90414,1.541776 0.13033,1.092866 -0.72796,2.061635 -1.79998,2.177227 -1.23769,0.133455 -2.32993,-0.84149 -2.45031,-2.058182 -0.13678,-1.382484 0.95502,-2.598373 2.31639,-2.723393 1.52725,-0.140255 2.86692,1.06853 2.99647,2.574587 0.14383,1.67201 -1.18204,3.135551 -2.83279,3.26956" />
    <path
       sodipodi:type="spiral"
       style="fill:none;fill-opacity:1;stroke:#000000;stroke-width:0.0629999;stroke-dasharray:none;stroke-opacity:1"
       id="path46"
       sodipodi:cx="714.7063"
       sodipodi:cy="70.369003"
       sodipodi:expansion="1"
       sodipodi:revolution="3"
       sodipodi:radius="1.5293726"
       sodipodi:argument="-17.579346"
       sodipodi:t0="0"
       d="m 714.7063,70.369003 c 0.0227,0.07324 -0.0875,0.06674 -0.12173,0.03773 -0.0927,-0.0786 -0.0387,-0.221944 0.0463,-0.281201 0.15206,-0.105999 0.35666,-0.02003 0.44067,0.130262 0.12328,0.220556 0.002,0.49356 -0.21426,0.600138 -0.28786,0.142051 -0.63127,-0.01638 -0.75961,-0.29826 -0.16149,-0.354723 0.0343,-0.769385 0.38226,-0.919074 0.42139,-0.181294 0.90773,0.05221 1.07854,0.466257 0.2013,0.48794 -0.07,1.046208 -0.55025,1.23801 -0.55443,0.221443 -1.18479,-0.08784 -1.39748,-0.634254 -0.24168,-0.620875 0.10561,-1.32343 0.71825,-1.556946 0.68729,-0.26197 1.46212,0.123368 1.71642,0.802251 0.28231,0.75369 -0.14112,1.600853 -0.88625,1.875883" />
    <path
       sodipodi:type="spiral"
       style="fill:none;fill-opacity:1;stroke:#000000;stroke-width:0.0629999;stroke-dasharray:none;stroke-opacity:1"
       id="path47"
       sodipodi:cx="708.55652"
       sodipodi:cy="88.968742"
       sodipodi:expansion="1"
       sodipodi:revolution="3"
       sodipodi:radius="1.9731319"
       sodipodi:argument="-17.659637"
       sodipodi:t0="0"
       d="m 708.55652,88.968742 c 0.0368,0.09184 -0.10566,0.09488 -0.15265,0.06112 -0.12733,-0.09149 -0.0728,-0.281411 0.0304,-0.366413 0.18459,-0.152049 0.4566,-0.06266 0.58018,0.121919 0.18136,0.270878 0.0533,0.634541 -0.21344,0.793949 -0.35548,0.212465 -0.81351,0.04426 -1.00771,-0.304961 -0.24439,-0.439462 -0.0355,-0.992982 0.39648,-1.221485 0.52314,-0.276748 1.17274,-0.02679 1.43525,0.488002 0.30937,0.606661 0.0182,1.352672 -0.57952,1.649022 -0.69008,0.342147 -1.53273,0.0096 -1.86279,-0.671044 -0.37504,-0.773438 -0.001,-1.712861 0.76256,-2.076558 0.85675,-0.408013 1.89306,0.0074 2.29033,0.854086 0.44104,0.940032 -0.0158,2.0733 -0.94561,2.504094" />
    <path
       sodipodi:type="spiral"
       style="fill:none;fill-opacity:1;stroke:#000000;stroke-width:0.0629999;stroke-dasharray:none;stroke-opacity:1"
       id="path48"
       sodipodi:cx="691.73895"
       sodipodi:cy="91.973946"
       sodipodi:expansion="1"
       sodipodi:revolution="3"
       sodipodi:radius="2.6817012"
       sodipodi:argument="-17.416039"
       sodipodi:t0="0"
       d="m 691.73895,91.973946 c 0.0184,0.133191 -0.17046,0.09051 -0.22137,0.03058 -0.13797,-0.162414 -0.004,-0.395039 0.16021,-0.473328 0.29331,-0.14004 0.62279,0.06703 0.72528,0.350999 0.15042,0.416736 -0.13774,0.854413 -0.54179,0.977237 -0.53853,0.163705 -1.08752,-0.208296 -1.22919,-0.73258 -0.17828,-0.659757 0.27874,-1.321351 0.92337,-1.481146 0.78074,-0.193533 1.5556,0.349107 1.7331,1.114161 0.20918,0.901589 -0.41943,1.790113 -1.30495,1.985056 -1.02237,0.225069 -2.0248,-0.489731 -2.23701,-1.495742 -0.24113,-1.143094 0.56001,-2.259605 1.68653,-2.488966 1.26379,-0.257308 2.4945,0.630269 2.74092,1.877323 0.27358,1.384467 -0.70052,2.729462 -2.06811,2.992875" />
    <path
       sodipodi:type="spiral"
       style="fill:none;fill-opacity:1;stroke:#000000;stroke-width:0.0629999;stroke-dasharray:none;stroke-opacity:1"
       id="path49"
       sodipodi:cx="701.98035"
       sodipodi:cy="83.826462"
       sodipodi:expansion="1"
       sodipodi:revolution="3"
       sodipodi:radius="0.4445706"
       sodipodi:argument="-17.591738"
       sodipodi:t0="0"
       d="m 701.98035,83.826462 c 0.007,0.02121 -0.0252,0.01971 -0.0353,0.01141 -0.0272,-0.02251 -0.0121,-0.06437 0.0124,-0.0819 0.0438,-0.03136 0.1036,-0.0071 0.12856,0.03628 0.0366,0.06366 0.002,0.143455 -0.0601,0.175211 -0.0832,0.04233 -0.18354,-0.0025 -0.22186,-0.08396 -0.0482,-0.102524 0.007,-0.223757 0.1078,-0.26852 0.12183,-0.05421 0.26403,0.01191 0.31517,0.13164 0.0603,0.141102 -0.0166,0.304349 -0.15548,0.361829 -0.16036,0.06636 -0.34469,-0.02126 -0.40848,-0.179322 -0.0725,-0.179596 0.0259,-0.385056 0.20316,-0.455138 0.19883,-0.07862 0.42543,0.03059 0.50179,0.227004 0.0848,0.218055 -0.0353,0.465822 -0.25084,0.548448" />
    <path
       sodipodi:type="spiral"
       style="fill:none;fill-opacity:1;stroke:#000000;stroke-width:0.0629999;stroke-dasharray:none;stroke-opacity:1"
       id="path50"
       sodipodi:cx="708.69122"
       sodipodi:cy="77.983757"
       sodipodi:expansion="1"
       sodipodi:revolution="3"
       sodipodi:radius="2.4808698"
       sodipodi:argument="-17.341829"
       sodipodi:t0="0"
       d="m 708.69122,77.983757 c 0.008,0.12414 -0.16347,0.07181 -0.20632,0.01303 -0.11615,-0.1593 0.0236,-0.364706 0.18026,-0.425686 0.2802,-0.109079 0.56997,0.104555 0.64505,0.373565 0.11018,0.394783 -0.18568,0.778803 -0.56687,0.864403 -0.50805,0.114092 -0.98901,-0.266758 -1.08376,-0.76016 -0.11922,-0.620897 0.34778,-1.199914 0.95346,-1.303121 0.73356,-0.124996 1.4112,0.428771 1.52248,1.146757 0.13114,0.846121 -0.50974,1.622726 -1.34005,1.741837 -0.95864,0.137518 -1.83442,-0.590686 -1.9612,-1.533352 -0.14405,-1.071117 0.67163,-2.046221 1.72665,-2.180554 1.18358,-0.150702 2.25811,0.752558 2.39991,1.919947 0.15743,1.296024 -0.83348,2.470057 -2.11324,2.619271" />
    <path
       sodipodi:type="spiral"
       style="fill:none;fill-opacity:1;stroke:#000000;stroke-width:0.0629999;stroke-dasharray:none;stroke-opacity:1"
       id="path51"
       sodipodi:cx="719.81775"
       sodipodi:cy="80.897957"
       sodipodi:expansion="1"
       sodipodi:revolution="3"
       sodipodi:radius="0.46192434"
       sodipodi:argument="-17.786118"
       sodipodi:t0="0"
       d="m 719.81775,80.897957 c 0.0112,0.02024 -0.0217,0.02515 -0.0337,0.0187 -0.0323,-0.01749 -0.0252,-0.0632 -0.004,-0.08599 0.0384,-0.04076 0.10419,-0.02804 0.13834,0.01118 0.0501,0.05755 0.0311,0.145791 -0.0261,0.190688 -0.0763,0.05984 -0.18762,0.0343 -0.24303,-0.04106 -0.0697,-0.09484 -0.0376,-0.22956 0.056,-0.295382 0.11332,-0.07972 0.27156,-0.04085 0.34773,0.07095 0.0898,0.131754 0.0442,0.313604 -0.0859,0.400078 -0.15016,0.09984 -0.35567,0.0475 -0.45242,-0.100831 -0.10994,-0.168545 -0.0508,-0.397756 0.11577,-0.504773 0.18692,-0.120057 0.43986,-0.0542 0.55712,0.130715 0.13019,0.205286 0.0575,0.481964 -0.14566,0.609468" />
    <path
       sodipodi:type="spiral"
       style="fill:none;fill-opacity:1;stroke:#000000;stroke-width:0.0629999;stroke-dasharray:none;stroke-opacity:1"
       id="path52"
       sodipodi:cx="695.10626"
       sodipodi:cy="80.38356"
       sodipodi:expansion="1"
       sodipodi:revolution="3"
       sodipodi:radius="1.8120177"
       sodipodi:argument="-17.472456"
       sodipodi:t0="0"
       d="m 695.10626,80.38356 c 0.0175,0.08915 -0.11155,0.06756 -0.14818,0.02907 -0.0993,-0.104311 -0.0176,-0.266358 0.0901,-0.325421 0.19254,-0.10565 0.4227,0.02149 0.50267,0.209158 0.11735,0.275408 -0.0604,0.581654 -0.32827,0.679908 -0.35707,0.130957 -0.7416,-0.09909 -0.85716,-0.447381 -0.14541,-0.438294 0.1377,-0.902034 0.5665,-1.034396 0.51933,-0.160308 1.06274,0.176246 1.21164,0.685605 0.17546,0.600262 -0.21476,1.223631 -0.80472,1.388882 -0.68114,0.19079 -1.38463,-0.253236 -1.56613,-0.923828 -0.20622,-0.761969 0.2917,-1.545716 1.04294,-1.743369 0.84278,-0.221738 1.70686,0.33015 1.92062,1.162051 0.2373,0.923569 -0.36859,1.868046 -1.28117,2.097857" />
    <path
       sodipodi:type="spiral"
       style="fill:none;fill-opacity:1;stroke:#000000;stroke-width:0.0629999;stroke-dasharray:none;stroke-opacity:1"
       id="path53"
       sodipodi:cx="710.18481"
       sodipodi:cy="81.28833"
       sodipodi:expansion="1"
       sodipodi:revolution="3"
       sodipodi:radius="0.98597783"
       sodipodi:argument="-17.962173"
       sodipodi:t0="0"
       d="m 710.18481,81.28833 c 0.0312,0.03833 -0.0363,0.06099 -0.0637,0.05188 -0.0744,-0.02468 -0.0766,-0.123398 -0.04,-0.179308 0.0654,-0.10001 0.20847,-0.09787 0.2949,-0.02822 0.12684,0.102209 0.11989,0.294749 0.0164,0.410497 -0.13793,0.154272 -0.38146,0.142231 -0.52609,0.0046 -0.182,-0.173241 -0.16475,-0.46838 0.007,-0.641686 0.20834,-0.209898 0.55542,-0.187378 0.75728,0.0191 0.23789,0.243323 0.21007,0.642527 -0.0309,0.872876 -0.27823,0.265948 -0.72968,0.232794 -0.98847,-0.04276 -0.29405,-0.313098 -0.25555,-0.816879 0.0546,-1.104066 0.34793,-0.32218 0.9041,-0.278334 1.21966,0.06642 0.35034,0.382739 0.30113,0.991335 -0.0783,1.335256" />
    <path
       sodipodi:type="spiral"
       style="fill:none;fill-opacity:1;stroke:#000000;stroke-width:0.0629999;stroke-dasharray:none;stroke-opacity:1"
       id="path54"
       sodipodi:cx="725.3017"
       sodipodi:cy="81.816048"
       sodipodi:expansion="1"
       sodipodi:revolution="3"
       sodipodi:radius="3.0689995"
       sodipodi:argument="-17.953838"
       sodipodi:t0="0"
       d="m 725.3017,81.816048 c 0.0962,0.120123 -0.11448,0.188893 -0.19966,0.159833 -0.23081,-0.07875 -0.23528,-0.386066 -0.12001,-0.55914 0.20619,-0.309587 0.65142,-0.299213 0.91863,-0.08019 0.39214,0.321422 0.36549,0.92053 0.0404,1.278112 -0.43334,0.476602 -1.191,0.432804 -1.6376,5.54e-4 -0.562,-0.543944 -0.50065,-1.462125 0.0393,-1.997085 0.65391,-0.647909 1.73361,-0.56881 2.35657,0.07909 0.73413,0.763524 0.63716,2.005339 -0.11891,2.716058 -0.87291,0.820554 -2.27721,0.70565 -3.07554,-0.158727 -0.90712,-0.98216 -0.77423,-2.549197 0.19854,-3.43503 1.09131,-0.993771 2.82126,-0.842871 3.79452,0.238367 1.0805,1.200379 0.91157,3.093379 -0.27818,4.154003" />
    <path
       sodipodi:type="spiral"
       style="fill:none;fill-opacity:1;stroke:#000000;stroke-width:0.0629999;stroke-dasharray:none;stroke-opacity:1"
       id="path55"
       sodipodi:cx="709.59888"
       sodipodi:cy="83.905647"
       sodipodi:expansion="1"
       sodipodi:revolution="3"
       sodipodi:radius="1.2847409"
       sodipodi:argument="-17.599995"
       sodipodi:t0="0"
       d="m 709.59888,83.905647 c 0.0203,0.06112 -0.0724,0.05757 -0.10159,0.0338 -0.0792,-0.06441 -0.0364,-0.185731 0.034,-0.236974 0.12587,-0.09166 0.2992,-0.02301 0.37236,0.10176 0.10737,0.183099 0.01,0.414494 -0.16954,0.507751 -0.2393,0.124297 -0.53047,-0.0028 -0.64314,-0.237323 -0.14179,-0.295118 0.0155,-0.646775 0.30511,-0.778528 0.35076,-0.159572 0.76327,0.0281 0.91391,0.372886 0.17753,0.406312 -0.0407,0.879888 -0.44066,1.049305 -0.46181,0.195599 -0.99659,-0.05322 -1.1847,-0.508449 -0.21374,-0.517259 0.0657,-1.113335 0.57623,-1.320083 0.57269,-0.23194 1.23013,0.07825 1.45547,0.644012 0.25018,0.628101 -0.0908,1.346948 -0.71179,1.590861" />
    <rect
       style="fill:#000000;fill-opacity:1;stroke:#000000;stroke-width:0.0629999;stroke-dasharray:none;stroke-opacity:1"
       id="rect55"
       width="1.4715455"
       height="1.4715455"
       x="715.61133"
       y="80.59877" />
    <text
       xml:space="preserve"
       style="font-size:2.11667px;font-family:sans-serif;-inkscape-font-specification:'sans-serif, ';fill:#000000;fill-opacity:1;stroke:#000000;stroke-width:0.0629999;stroke-dasharray:none;stroke-opacity:1"
       x="705.52771"
       y="49.508316"
       id="text55"><tspan
         sodipodi:role="line"
         id="tspan55"
         style="font-size:2.11667px;stroke-width:0.063"
         x="705.52771"
         y="49.508316">Mean flow direction</tspan></text>
    <path
       style="fill:#000000;stroke:#000000;stroke-width:0.299101;stroke-dasharray:none;marker-end:url(#Triangle-9)"
       d="m 695.87128,83.115675 c 14.03985,0 28.0797,0 42.11955,0"
       id="path1-1"
       inkscape:path-effect="#path-effect2-3"
       inkscape:original-d="m 695.87128,83.115675 c 14.03985,0 28.0797,0 42.11955,0"
       transform="translate(43.903712,9.350697)" />
    <path
       style="fill:#000000;stroke:#000000;stroke-width:0.299101;stroke-dasharray:none;marker-end:url(#Triangle-9)"
       d="m 695.87128,83.115675 c 14.03985,0 28.0797,0 42.11955,0"
       id="path56"
       inkscape:path-effect="#path-effect57"
       inkscape:original-d="m 695.87128,83.115675 c 14.03985,0 28.0797,0 42.11955,0"
       transform="rotate(-90,725.48185,66.482833)" />
    <path
       style="fill:none;fill-opacity:1;stroke:#000000;stroke-width:0.0629999;stroke-dasharray:none;stroke-opacity:1"
       d="m 737.44579,91.350062 c 3.7505,0.977415 0.71407,-5.095234 2.35215,-6.487446 0.97525,-0.828871 0.67168,3.862338 1.05129,5.645234 0.42661,2.003669 2.11173,1.351537 3.53857,1.169616 4.58377,-0.584428 1.56518,-18.767214 3.0676,-18.768061 1.53023,-8.62e-4 -1.11583,15.089578 2.7994,17.946625 4.70402,3.432681 2.21598,-3.533872 3.67598,-5.346643 1.58885,-1.972718 -0.33456,6.598026 5.05249,5.911199 0.61285,-0.07814 2.18111,0.546741 2.52794,-0.734949 0.70291,-2.597593 -0.0164,-8.023681 1.27926,-8.033373 1.32131,-0.0099 -0.86489,10.18519 4.73386,8.431049 7.71861,-2.41831 3.40192,-21.043845 5.73361,-23.832975 0.92112,-1.101829 -0.0214,14.859212 2.66264,22.730901 0.98955,2.902155 2.76662,0.458378 4.89033,1.729481"
       id="path57"
       sodipodi:nodetypes="cssssssssssssc" />
    <text
       xml:space="preserve"
       style="font-size:2.11667px;font-family:sans-serif;-inkscape-font-specification:'sans-serif, ';fill:#000000;fill-opacity:1;stroke:#000000;stroke-width:0.0629999;stroke-dasharray:none;stroke-opacity:1"
       x="786.10089"
       y="92.704628"
       id="text57"><tspan
         sodipodi:role="line"
         id="tspan57"
         style="stroke-width:0.063;fill:#000000;fill-opacity:1"
         x="786.10089"
         y="92.704628">time</tspan></text>
    <text
       xml:space="preserve"
       style="font-size:2.11667px;font-family:sans-serif;-inkscape-font-specification:'sans-serif, ';fill:#000000;fill-opacity:1;stroke:#000000;stroke-width:0.0629999;stroke-dasharray:none;stroke-opacity:1"
       x="743.9599"
       y="52.472527"
       id="text58"><tspan
         sodipodi:role="line"
         id="tspan58"
         style="stroke-width:0.063"
         x="743.9599"
         y="52.472527">density</tspan></text>
    <path
       style="fill:none;fill-opacity:1;stroke:#000000;stroke-width:0.163;stroke-dasharray:none;stroke-opacity:1;marker-end:url(#marker59)"
       d="m 717.19271,80.500745 c 3.56832,-2.494421 7.13664,-4.988837 10.97031,-6.270199 3.83367,-1.281362 7.9327,-1.349669 12.03174,-1.417976"
       id="path58"
       inkscape:path-effect="#path-effect58"
       inkscape:original-d="m 717.19271,80.500745 c 3.56832,-2.494421 7.13664,-4.988837 10.70495,-7.483253 4.09903,-0.06831 8.19806,-0.136615 12.2971,-0.204922"
       sodipodi:nodetypes="ccc" />
  </g>
</svg>
